<?xml version="1.0" encoding="UTF-8"?>
<svg version="1.1" xmlns="http://www.w3.org/2000/svg" width="406" height="406">
<path d="M0 0 C133.98 0 267.96 0 406 0 C406 133.98 406 267.96 406 406 C272.02 406 138.04 406 0 406 C0 272.02 0 138.04 0 0 Z " fill="#090909" transform="translate(0,0)"/>
<path d="M0 0 C57.75 0 115.5 0 175 0 C175 102.63 175 205.26 175 311 C117.25 311 59.5 311 0 311 C0 208.37 0 105.74 0 0 Z " fill="#E5E1D5" transform="translate(114,30)"/>
<path d="M0 0 C7.81522952 -0.0679858 15.63029517 -0.12293656 23.44573975 -0.15543652 C27.07542985 -0.17104099 30.70490578 -0.19218257 34.33447266 -0.22631836 C37.84229617 -0.25909979 41.34991468 -0.27689219 44.85787964 -0.28463173 C46.8363929 -0.29280918 48.81482458 -0.31619824 50.79321289 -0.33988953 C59.97176838 -0.34159335 67.41144584 0.54935692 74.27396452 7.15120262 C80.90425385 14.25306218 81.72501532 21.29415122 81.63491821 30.70787048 C81.64271817 31.96623878 81.65051812 33.22460707 81.65855443 34.52110773 C81.67932952 37.99338209 81.66915603 41.46496489 81.65362334 44.93724096 C81.64227492 48.68991178 81.65978984 52.44246662 81.67352295 56.19511414 C81.69572349 63.53868123 81.69096827 70.88199241 81.67645974 78.22556942 C81.66515406 84.19592361 81.66364235 90.16620624 81.66907883 96.13656807 C81.66984499 96.98727269 81.67061116 97.83797732 81.67140054 98.71446087 C81.67299922 100.44282577 81.67462029 102.17119065 81.6762635 103.89955551 C81.69051189 120.09619344 81.67414302 136.29268974 81.64726166 152.48930443 C81.62492772 166.37567168 81.62880076 180.26182989 81.65185547 194.14819336 C81.67863652 210.28649652 81.68913444 226.4246756 81.67379415 242.56299788 C81.67220146 244.28520395 81.67062961 246.00741005 81.66907883 247.72961617 C81.66830745 248.57690012 81.66753607 249.42418407 81.66674132 250.29714329 C81.66243093 256.25727343 81.66969668 262.21732464 81.68147659 268.17744255 C81.69552596 275.44536214 81.69165084 282.71301187 81.66507287 289.9809007 C81.65196658 293.68656568 81.64672709 297.39178136 81.66331863 301.09744263 C81.68105784 305.12039847 81.65982326 309.14222809 81.63491821 313.16514587 C81.64607182 314.32829046 81.65722543 315.49143504 81.66871703 316.68982643 C81.57059087 324.87215878 79.93495924 331.78253522 74.21537077 337.91275448 C67.25632334 344.33235884 60.93370028 345.44051141 51.72692871 345.39440918 C50.58672445 345.40050028 49.44652019 345.40659139 48.27176428 345.41286707 C44.44865326 345.42952478 40.62587428 345.42471716 36.80273438 345.41992188 C34.06284022 345.42562354 31.32296612 345.43575322 28.58308411 345.44558716 C21.91228268 345.46663015 15.24156818 345.47118272 8.57073748 345.46939927 C3.14901017 345.4680913 -2.27269003 345.47189759 -7.69441223 345.47932434 C-9.2565093 345.48142354 -10.81860637 345.48352114 -12.38070345 345.48561716 C-13.54696098 345.48718245 -13.54696098 345.48718245 -14.73677927 345.48877937 C-29.4372287 345.50767651 -44.13762821 345.5066329 -58.83808476 345.49981004 C-72.2873365 345.49423255 -85.73639787 345.51506964 -99.18560511 345.54817051 C-112.99685201 345.58189858 -126.80800769 345.59707711 -140.61929655 345.59245348 C-148.37271769 345.5902082 -156.12596279 345.59546069 -163.87934875 345.62034607 C-170.47880055 345.64134762 -177.07797973 345.64496259 -183.67744267 345.62604648 C-187.04451969 345.61688173 -190.41067169 345.61847174 -193.77777672 345.63640213 C-197.42796196 345.65450145 -201.07678567 345.64191254 -204.72692871 345.62145996 C-205.79093352 345.63397781 -206.85493833 345.64649566 -207.9511857 345.65939283 C-215.94550146 345.56310234 -215.94550146 345.56310234 -219.64206696 342.58615875 C-222.18939621 339.79227202 -222.88363882 338.87270885 -223.375 335.1875 C-222.8728812 330.91949022 -221.27134682 329.67655649 -218 327 C-215.08142115 325.26899325 -212.97402818 324.74956804 -209.59343529 324.74666691 C-208.7123722 324.74105151 -207.83130912 324.73543612 -206.92354715 324.72965056 C-205.95993473 324.73363165 -204.99632231 324.73761274 -204.00350952 324.74171448 C-202.46304221 324.73620092 -202.46304221 324.73620092 -200.89145434 324.73057598 C-197.43979317 324.72057153 -193.98829233 324.72475163 -190.53662109 324.72875977 C-188.06639941 324.72437424 -185.59617922 324.71907273 -183.1259613 324.71292114 C-177.80197434 324.70140841 -172.47802942 324.69576823 -167.15403366 324.69503975 C-159.45424019 324.69371474 -151.7545195 324.67860929 -144.05475171 324.65954458 C-131.55962211 324.62870305 -119.06449067 324.60453602 -106.56933594 324.58666992 C-105.44754942 324.5850609 -105.44754942 324.5850609 -104.30310054 324.58341938 C-95.95481523 324.57159309 -87.60652919 324.56138809 -79.25823975 324.55297852 C-76.22880044 324.54990447 -73.19936114 324.54681571 -70.16992188 324.54370117 C-69.42236769 324.54293583 -68.6748135 324.54217049 -67.90460615 324.54138196 C-55.45396262 324.52831501 -43.00337186 324.50369772 -30.5527674 324.46995777 C-22.86897081 324.44963507 -15.18528698 324.43938285 -7.50146331 324.44194698 C-1.6208661 324.44310129 4.25962986 324.42899553 10.14019585 324.40913773 C12.5581886 324.40351286 14.97619952 324.40307607 17.39419365 324.40807533 C20.68215982 324.41416313 23.96956013 324.40208256 27.25747681 324.38526917 C28.22555067 324.39148098 29.19362453 324.3976928 30.19103396 324.40409285 C31.06688155 324.39586971 31.94272914 324.38764656 32.84511757 324.37917423 C33.98444361 324.37795255 33.98444361 324.37795255 35.14678633 324.37670618 C37.41404875 324.14254701 37.41404875 324.14254701 39 321 C39.29917454 318.66301317 39.29917454 318.66301317 39.24888897 316.01649475 C39.25348777 314.98128661 39.25808656 313.94607847 39.26282471 312.87950039 C39.25768115 311.73856458 39.25253759 310.59762877 39.24723816 309.42211914 C39.25085978 307.60835203 39.25085978 307.60835203 39.25455457 305.75794315 C39.25922619 302.3955647 39.25488916 299.03341312 39.24679029 295.67105532 C39.24022383 292.04729095 39.24515947 288.42354023 39.24867249 284.79977417 C39.25371975 277.69843291 39.24806624 270.59713813 39.23882218 263.49580264 C39.22844983 255.2313204 39.22850807 246.96684828 39.22899476 238.70236075 C39.22949567 223.95944161 39.22032632 209.21654413 39.20581055 194.47363281 C39.19172258 180.15787359 39.18463975 165.84213344 39.18530273 151.52636719 C39.18536267 150.20386772 39.18536267 150.20386772 39.18542381 148.85465109 C39.18548435 147.53447031 39.18548435 147.53447031 39.1855461 146.18761921 C39.18623552 129.90451853 39.18034829 113.62142599 39.17139288 97.33832794 C39.16837324 91.57338088 39.16731293 85.80843531 39.16686058 80.04348755 C39.16617922 73.02088731 39.16172545 65.99830076 39.15252777 58.97570634 C39.14790309 55.39058731 39.14486674 51.80548583 39.14612198 48.22036362 C39.14741489 44.33952219 39.14098403 40.45871622 39.13371277 36.57788086 C39.13526137 35.43694505 39.13680997 34.29600924 39.1384055 33.12049961 C39.13518106 32.08529147 39.13195661 31.05008333 39.12863445 29.98350525 C39.12757782 28.6388867 39.12757782 28.6388867 39.12649983 27.26710415 C39.0903103 24.83279049 39.0903103 24.83279049 38 22 C19.19 21.505 19.19 21.505 0 21 C0 14.07 0 7.14 0 0 Z " fill="#FEFEFE" transform="translate(304,30)"/>
<path d="M0 0 C133.98 0 267.96 0 406 0 C406 133.98 406 267.96 406 406 C272.02 406 138.04 406 0 406 C0 272.02 0 138.04 0 0 Z M12.046875 29.359375 C6.51041415 36.50183213 2.87832097 45.15955071 2.87136555 54.21473217 C2.8681411 55.27609833 2.86491665 56.33746449 2.8615945 57.43099326 C2.8631431 58.5960511 2.8646917 59.76110894 2.86628723 60.96147156 C2.86402167 62.19993908 2.86175612 63.43840661 2.85942191 64.71440345 C2.8541797 68.15408625 2.85343823 71.59371684 2.85461628 75.03339994 C2.85482014 78.74247003 2.84930289 82.4515323 2.84455872 86.16059875 C2.83624771 93.42890234 2.83350365 100.69719781 2.83294634 107.96550574 C2.83247129 113.87446912 2.8304171 119.78342982 2.82724571 125.69239235 C2.81843709 142.44577878 2.81382654 159.19915881 2.81457619 175.95254757 C2.81461614 176.8559681 2.8146561 177.75938864 2.81469727 178.69018555 C2.81473815 179.59470964 2.81477903 180.49923373 2.81482115 181.43116764 C2.81522744 196.08445978 2.80566264 210.7377262 2.7915589 225.3910109 C2.77719123 240.43729794 2.77028896 255.48357244 2.77115268 270.52986652 C2.77148456 278.97696538 2.76874129 287.4240373 2.75797462 295.87112999 C2.74886439 303.06481759 2.7466986 310.25846605 2.75348405 317.45215692 C2.75674691 321.12108486 2.75681447 324.78993771 2.7481308 328.45885849 C2.73880419 332.44047708 2.74504817 336.42198629 2.75276184 340.40361023 C2.74761828 341.55751446 2.74247471 342.71141869 2.73717529 343.90028971 C2.77509756 352.75997411 3.77561264 360.30610946 7.875 368.25 C8.36742187 369.22453125 8.85984375 370.1990625 9.3671875 371.203125 C12.1338844 375.94225174 15.13351866 379.40968492 19.625 382.5625 C20.40101562 383.12066406 21.17703125 383.67882812 21.9765625 384.25390625 C30.93545035 389.42783761 38.51441116 390.58066347 48.80845642 390.50793457 C50.18693736 390.51255102 51.56541336 390.51890891 52.94387919 390.52684355 C56.70831036 390.54345836 60.47233311 390.53532664 64.23676527 390.52289867 C68.3057133 390.51381802 72.37459294 390.52783286 76.44352722 390.53881836 C84.40555667 390.55657658 92.36743503 390.55277551 100.32947033 390.5411678 C106.80273912 390.53212248 113.27596567 390.53091423 119.74923897 390.53526306 C121.13289867 390.53618246 121.13289867 390.53618246 122.5445111 390.53712043 C124.41863073 390.53839938 126.29275034 390.53969623 128.16686995 390.5410108 C145.72838786 390.55240886 163.28982216 390.53931537 180.85132635 390.51780933 C195.90735515 390.49994203 210.96326055 390.50304093 226.01928711 390.52148438 C243.51778635 390.54290989 261.01621235 390.55130717 278.51472288 390.53903532 C280.38213033 390.53776117 282.24953779 390.53650369 284.11694527 390.53526306 C285.03566039 390.53464596 285.9543755 390.53402886 286.90093048 390.53339306 C293.36303284 390.52994498 299.82508861 390.53575686 306.28718376 390.54518127 C314.16729069 390.55642146 322.04723832 390.55331898 329.92732709 390.5320583 C333.94495209 390.52157452 337.96231189 390.5173801 341.97993469 390.53065491 C345.66325465 390.54264068 349.34606548 390.53591566 353.02933974 390.5147447 C354.98119596 390.50821352 356.93308797 390.52115935 358.88490623 390.53497362 C372.10904033 390.41799421 381.17840297 386.39399264 390.71484375 377.37890625 C397.58493072 370.08927199 401.11805183 360.54710225 401.13142776 350.6181612 C401.13526891 349.54497051 401.13911005 348.47177981 401.1430676 347.36606818 C401.14176787 345.6063646 401.14176787 345.6063646 401.14044189 343.81111145 C401.14341302 342.56024441 401.14638414 341.30937737 401.1494453 340.02060527 C401.15750218 336.55092086 401.15930414 333.08125717 401.16004276 329.61156452 C401.16189561 325.86840758 401.16944412 322.12526134 401.17617798 318.3821106 C401.18975261 310.19811342 401.19578469 302.01412116 401.20018864 293.8301146 C401.20295259 288.71844965 401.20719023 283.60678659 401.21169281 278.49512291 C401.22388445 264.33807526 401.2341839 250.18102911 401.2375679 236.02397633 C401.23778747 235.1181109 401.23800703 234.21224547 401.23823325 233.27892957 C401.23845153 232.37091563 401.23866981 231.46290169 401.2388947 230.52737218 C401.23933816 228.68743757 401.23978473 226.84750297 401.24023438 225.00756836 C401.2404558 224.09490024 401.24067723 223.18223211 401.24090537 222.24190738 C401.24485254 207.45677886 401.26230454 192.67169964 401.2855939 177.88659016 C401.30932027 162.70127498 401.32177034 147.51598453 401.32293582 132.33065051 C401.32385187 123.80694721 401.32958649 115.28330816 401.34775543 106.75962257 C401.36317378 99.50083206 401.36826667 92.24212566 401.36001733 84.98332188 C401.35611693 81.28182283 401.35701043 77.58049307 401.37107468 73.87901497 C401.38620352 69.86049065 401.37792908 65.84234596 401.36749268 61.82380676 C401.37554908 60.66182465 401.38360548 59.49984254 401.39190602 58.30264884 C401.31899518 46.28447363 398.22281908 35.68376864 389.890625 26.734375 C385.31137398 22.4709344 380.76212452 19.38384873 375 17 C374.37668726 16.7334748 373.75337452 16.4669496 373.11117351 16.19234788 C366.30117804 13.58893287 359.83958843 13.57989499 352.61550903 13.61904907 C351.27089238 13.61558757 349.92627857 13.61081971 348.58167064 13.60486734 C344.90625039 13.59239485 341.23106515 13.5985105 337.55564427 13.60782599 C333.58416897 13.61463174 329.61273324 13.60412762 325.64126587 13.59588623 C317.86828548 13.58256222 310.0953921 13.58542091 302.32240833 13.59412415 C296.00262975 13.60090651 289.68287551 13.60181503 283.36309433 13.5985527 C282.46272193 13.598093 281.56234952 13.59763331 280.63469311 13.59715968 C278.80542795 13.59620047 276.9761628 13.59522783 275.14689766 13.5942419 C258.00220241 13.58569165 240.85755531 13.5955159 223.71286796 13.611643 C209.01444644 13.62504128 194.31609602 13.62272142 179.61767578 13.60888672 C162.53633322 13.59281658 145.45503287 13.5865204 128.37368381 13.59572351 C126.55063495 13.59667912 124.72758608 13.59762223 122.9045372 13.5985527 C122.00763998 13.59901553 121.11074275 13.59947836 120.18666682 13.59995521 C113.87837225 13.60254113 107.57010453 13.59818258 101.26181412 13.59111404 C93.56835681 13.5826827 85.87499129 13.58501328 78.18154444 13.60095628 C74.2591517 13.60881775 70.33691173 13.61196709 66.41452026 13.60200882 C62.81820871 13.59301683 59.22219039 13.59806812 55.62590514 13.61394148 C53.72072666 13.61883765 51.81552754 13.60913307 49.91037095 13.59876978 C34.6636001 13.70231629 22.68895909 18.26443627 12.046875 29.359375 Z " fill="#FCFCFC" transform="translate(0,0)"/>
<path d="M0 0 C0.87217163 0.00045822 1.74434326 0.00091644 2.64294434 0.00138855 C4.47144954 0.00438506 6.2999528 0.01219213 8.12841797 0.0246582 C10.89950796 0.04292431 13.67026223 0.04516724 16.44140625 0.04492188 C18.23177367 0.0498386 20.02213887 0.05566759 21.8125 0.0625 C23.03326233 0.06416924 23.03326233 0.06416924 24.27868652 0.06587219 C28.44654161 0.099624 32.5985539 0.25016754 36.75585938 0.5534668 C37.94858459 0.63820503 37.94858459 0.63820503 39.16540527 0.72465515 C41.89962035 1.34183454 43.36222418 2.3292694 45.40625 4.23046875 C46.27734375 7.15625 46.27734375 7.15625 46.84375 10.54296875 C47.85745712 15.98458373 47.85745712 15.98458373 50.90625 20.41796875 C57.1999892 27.49842535 57.29969075 38.39832544 58.34155273 47.47973633 C58.593048 49.66187775 58.86091224 51.84155708 59.13085938 54.02148438 C60.06428069 61.77380097 60.67943559 69.41066194 60.40625 77.23046875 C61.685 77.18921875 62.96375 77.14796875 64.28125 77.10546875 C66.4609375 77.03515625 66.4609375 77.03515625 68.40625 77.23046875 C69.06625 77.89046875 69.72625 78.55046875 70.40625 79.23046875 C70.2914959 86.34522285 70.2914959 86.34522285 66.96875 89.66796875 C64.40625 91.23046875 64.40625 91.23046875 62.40625 92.23046875 C62.27748314 98.96300837 62.6537807 105.48190563 63.40625 112.16796875 C64.75065477 125.42080174 65.31477715 138.41080907 63.15625 151.60546875 C63.04708252 152.30124023 62.93791504 152.99701172 62.82543945 153.71386719 C61.84535973 158.91953654 59.98330634 162.45356909 55.58203125 165.48828125 C41.80061113 171.90227552 28.25154055 173.59844783 13.09375 173.48046875 C11.82208984 173.47297607 10.55042969 173.4654834 9.24023438 173.45776367 C-23.59182406 173.08238436 -23.59182406 173.08238436 -35.59375 162.23046875 C-43.47201324 147.93287992 -41.38784054 128.79925845 -39.59375 113.16796875 C-39.46202393 111.9919812 -39.46202393 111.9919812 -39.32763672 110.79223633 C-39.24271973 110.03450928 -39.15780273 109.27678223 -39.0703125 108.49609375 C-38.98942383 107.77099609 -38.90853516 107.04589844 -38.82519531 106.29882812 C-38.61222628 104.39558584 -38.39610641 102.49269683 -38.1796875 100.58984375 C-37.97965162 97.58189683 -37.85348445 95.15307558 -38.59375 92.23046875 C-40.51847898 90.28052498 -42.45560402 89.00022174 -44.8046875 87.6015625 C-46.59375 86.23046875 -46.59375 86.23046875 -47.21875 82.48046875 C-46.59375 79.23046875 -46.59375 79.23046875 -44.59375 77.23046875 C-41.90535615 76.96054969 -39.30233064 77.14309518 -36.59375 77.23046875 C-36.63113281 75.92078125 -36.66851562 74.61109375 -36.70703125 73.26171875 C-36.70342135 66.42697491 -35.88336583 59.69819222 -35.04956055 52.92626953 C-34.78190678 50.73584374 -34.53011713 48.54397184 -34.27929688 46.3515625 C-31.66578498 24.30250373 -31.66578498 24.30250373 -23.59375 16.23046875 C-23.24422461 14.19364564 -23.24422461 14.19364564 -23.15625 11.91796875 C-22.45374104 5.09045979 -22.45374104 5.09045979 -19.59375 2.23046875 C-13.18524308 0.26005401 -6.65471477 -0.05875537 0 0 Z " fill="#F09023" transform="translate(188.59375,125.76953125)"/>
<path d="M0 0 C1.24716797 0.00322266 2.49433594 0.00644531 3.77929688 0.00976562 C5.07287109 0.01814453 6.36644531 0.02652344 7.69921875 0.03515625 C9.66858398 0.04192383 9.66858398 0.04192383 11.67773438 0.04882812 C14.91410885 0.06059676 18.15039053 0.07703865 21.38671875 0.09765625 C20.86271484 1.12826172 20.86271484 1.12826172 20.328125 2.1796875 C19.87308594 3.08074219 19.41804688 3.98179688 18.94921875 4.91015625 C18.49675781 5.80347656 18.04429688 6.69679688 17.578125 7.6171875 C15.75430111 11.41432905 15.26024663 14.25040321 15.25249767 18.41801453 C15.24803983 19.52840717 15.24358199 20.63879982 15.23898906 21.78284073 C15.23917342 23.00781139 15.23935778 24.23278206 15.23954773 25.49487305 C15.23587104 26.7923283 15.23219435 28.08978355 15.22840625 29.42655563 C15.21838159 33.03564442 15.21466869 36.64471658 15.21201694 40.25381732 C15.20811515 44.14358907 15.19853657 48.03334763 15.18980408 51.92311096 C15.17003386 61.32206742 15.15997175 70.72102497 15.15107629 80.11999702 C15.14669341 84.54667354 15.14132652 88.97334885 15.13608742 93.40002441 C15.11907292 108.11715446 15.1045797 122.83428375 15.09733868 137.55142212 C15.09542879 141.37135825 15.09350846 145.19129437 15.09155273 149.01123047 C15.09082712 150.43536676 15.09082712 150.43536676 15.09008685 151.88827348 C15.08179021 167.26132201 15.05646045 182.63429264 15.02397206 198.00730717 C14.99088463 213.79260005 14.9728883 229.57785338 14.96969444 245.36318111 C14.96753066 254.22511053 14.95880168 263.08692642 14.93323326 271.94882202 C14.91150308 279.49786717 14.90348714 287.04677121 14.91320004 294.59584409 C14.91773835 298.44534454 14.91588628 302.29455401 14.8964386 306.14401436 C14.87550222 310.3244033 14.8858129 314.50414973 14.89897156 318.68457031 C14.88800231 319.8916952 14.87703307 321.0988201 14.86573142 322.34252453 C14.91769739 329.19341413 15.87727594 334.63082774 18.52886611 340.96764755 C19.38671875 343.09765625 19.38671875 343.09765625 19.38671875 345.09765625 C14.88693991 345.21455698 10.38755588 345.28514462 5.88671875 345.34765625 C4.61828125 345.38117188 3.34984375 345.4146875 2.04296875 345.44921875 C-5.38947156 345.52664 -10.30979373 345.12614408 -16.61328125 341.09765625 C-17.47953125 340.58203125 -18.34578125 340.06640625 -19.23828125 339.53515625 C-26.75278072 331.82290679 -28.49478549 323.61236773 -28.36172485 313.17378235 C-28.36967367 311.91637763 -28.37762248 310.65897291 -28.38581216 309.36346501 C-28.40682678 305.90311567 -28.3908352 302.44381159 -28.36831117 298.98350894 C-28.35052869 295.24045781 -28.3675421 291.49753627 -28.3800354 287.75448608 C-28.3989571 280.43453108 -28.38586087 273.11497197 -28.36150952 265.79504649 C-28.33419483 257.26504369 -28.33755166 248.73513395 -28.34177618 240.20509853 C-28.34814772 224.98422617 -28.3248659 209.76354136 -28.28564453 194.54272461 C-28.24761955 179.78224988 -28.23347567 165.02199482 -28.24462891 150.26147461 C-28.25674968 134.17298418 -28.25638243 118.08459019 -28.23365724 101.99610776 C-28.23124274 100.28014736 -28.22883077 98.56418695 -28.22642136 96.84822655 C-28.22521428 96.00401526 -28.2240072 95.15980397 -28.22276355 94.29001052 C-28.21501258 88.34747161 -28.21578954 82.40496866 -28.21959305 76.46242714 C-28.22384099 69.22050142 -28.21335796 61.97876783 -28.18436594 54.73689619 C-28.16989853 51.04368239 -28.16170609 47.35074813 -28.17085266 43.65751076 C-28.18053223 39.65159162 -28.15914009 35.64643526 -28.13467407 31.64057922 C-28.14223272 30.47686415 -28.14979137 29.31314907 -28.15757906 28.1141699 C-28.07293094 20.28718424 -26.81513086 15.14473685 -21.8671875 8.890625 C-14.85186624 2.23174038 -9.76200185 -0.04457535 0 0 Z " fill="#FEFEFE" transform="translate(46.61328125,29.90234375)"/>
<path d="M0 0 C0 102.63 0 205.26 0 311 C-4.29 311.33 -8.58 311.66 -13 312 C-17.53616574 313.88915258 -17.53616574 313.88915258 -21 316 C-21.66 316 -22.32 316 -23 316 C-23.09155767 277.79057675 -23.16203981 239.58117003 -23.20426132 201.37165928 C-23.20926414 196.86056564 -23.21444143 192.34947222 -23.21972656 187.83837891 C-23.2207758 186.94030234 -23.22182505 186.04222578 -23.22290608 185.11693478 C-23.24031079 170.57585444 -23.27184885 156.03483737 -23.30861118 141.49379456 C-23.34601877 126.57307614 -23.36823547 111.65239085 -23.37635398 96.73162746 C-23.38184213 87.52487504 -23.39917528 78.31830142 -23.43166587 69.11160403 C-23.4528115 62.79801745 -23.45919994 56.48452329 -23.45400551 50.17090386 C-23.45144379 46.52836084 -23.45536759 42.88613026 -23.4768219 39.24364281 C-23.49992664 35.29203329 -23.49194508 31.34082983 -23.48101807 27.38916016 C-23.49266943 26.24128745 -23.5043208 25.09341475 -23.51632524 23.91075802 C-23.45957925 16.3265436 -22.51702907 10.55753228 -16.96484375 4.94140625 C-16.29582031 4.48636719 -15.62679687 4.03132813 -14.9375 3.5625 C-14.26589844 3.08941406 -13.59429687 2.61632813 -12.90234375 2.12890625 C-8.2929304 -0.60645404 -5.92011832 0 0 0 Z " fill="#5E5F5F" transform="translate(99,30)"/>
<path d="M0 0 C8.25 0 16.5 0 25 0 C25 90.75 25 181.5 25 275 C16.75 275 8.5 275 0 275 C0 184.25 0 93.5 0 0 Z " fill="#CFCEC2" transform="translate(304,66)"/>
<path d="M0 0 C0.87532969 -0.0039821 1.75065938 -0.00796419 2.65251422 -0.01206696 C3.60970898 -0.00624128 4.56690374 -0.00041559 5.5531044 0.00558662 C6.57332664 0.00387777 7.59354887 0.00216892 8.64468694 0.00040829 C12.07339769 -0.00289372 15.50191403 0.00812893 18.93060684 0.01904488 C21.38436758 0.01960884 23.83812865 0.01929273 26.29188919 0.01815987 C31.57988117 0.01770399 36.86781229 0.0233877 42.15578842 0.03463554 C49.80131063 0.05088745 57.44680897 0.05609823 65.09234658 0.05861153 C77.49661743 0.06298912 89.90086199 0.07629995 102.30511856 0.09521675 C114.35492191 0.1135739 126.40471812 0.12773121 138.45453262 0.13623238 C139.56859913 0.13702055 139.56859913 0.13702055 140.70517203 0.13782464 C144.43112319 0.14043471 148.1570744 0.14296213 151.88302565 0.14544845 C182.79506402 0.16618294 213.70706972 0.20155885 244.6190834 0.24609566 C244.6190834 0.57609566 244.6190834 0.90609566 244.6190834 1.24609566 C242.6390834 1.24609566 240.6590834 1.24609566 238.6190834 1.24609566 C238.6190834 7.51609566 238.6190834 13.78609566 238.6190834 20.24609566 C207.50968933 20.35912026 176.40036904 20.44863968 145.29081916 20.5014223 C141.61833919 20.50767586 137.94585963 20.51414747 134.27338028 20.52075386 C133.54225352 20.52206541 132.81112677 20.52337696 132.05784465 20.52472826 C120.21839039 20.54648683 108.37905748 20.5859108 96.53967522 20.63185964 C84.39202051 20.6786118 72.24442937 20.70638841 60.09668839 20.71653813 C52.6003758 20.72339992 45.1044062 20.74507436 37.60819919 20.78567799 C31.86077413 20.81522406 26.11356901 20.81837292 20.36608315 20.81163406 C18.007798 20.81301156 15.64950007 20.82298308 13.29129219 20.84212303 C10.07430049 20.86695617 6.85878291 20.86103528 3.64175797 20.84736824 C2.70595268 20.86193245 1.7701474 20.87649665 0.80598438 20.8915022 C-3.56238405 20.84124884 -6.47296086 20.63292719 -9.94483376 17.83351612 C-12.57692464 15.03791094 -13.25801558 14.1678533 -13.7559166 10.43359566 C-13.2537978 6.16558588 -11.65226342 4.92265215 -8.3809166 2.24609566 C-5.46906151 0.51984137 -3.37258137 -0.00339294 0 0 Z " fill="#C0C1BA" transform="translate(94.38091659545898,354.75390434265137)"/>
<path d="M0 0 C0.87217163 0.00045822 1.74434326 0.00091644 2.64294434 0.00138855 C4.47144954 0.00438506 6.2999528 0.01219213 8.12841797 0.0246582 C10.89950796 0.04292431 13.67026223 0.04516724 16.44140625 0.04492188 C18.23177367 0.0498386 20.02213887 0.05566759 21.8125 0.0625 C23.03326233 0.06416924 23.03326233 0.06416924 24.27868652 0.06587219 C28.44654161 0.099624 32.5985539 0.25016754 36.75585938 0.5534668 C37.94858459 0.63820503 37.94858459 0.63820503 39.16540527 0.72465515 C41.89962035 1.34183454 43.36222418 2.3292694 45.40625 4.23046875 C46.27734375 7.15625 46.27734375 7.15625 46.84375 10.54296875 C47.85745712 15.98458373 47.85745712 15.98458373 50.90625 20.41796875 C57.1999892 27.49842535 57.29969075 38.39832544 58.34155273 47.47973633 C58.593048 49.66187775 58.86091224 51.84155708 59.13085938 54.02148438 C60.06428069 61.77380097 60.67943559 69.41066194 60.40625 77.23046875 C61.685 77.18921875 62.96375 77.14796875 64.28125 77.10546875 C66.4609375 77.03515625 66.4609375 77.03515625 68.40625 77.23046875 C69.06625 77.89046875 69.72625 78.55046875 70.40625 79.23046875 C70.2914959 86.34522285 70.2914959 86.34522285 66.96875 89.66796875 C64.40625 91.23046875 64.40625 91.23046875 62.40625 92.23046875 C62.27748314 98.96300837 62.6537807 105.48190563 63.40625 112.16796875 C64.75065477 125.42080174 65.31477715 138.41080907 63.15625 151.60546875 C63.04708252 152.30124023 62.93791504 152.99701172 62.82543945 153.71386719 C61.84535973 158.91953654 59.98330634 162.45356909 55.58203125 165.48828125 C41.80061113 171.90227552 28.25154055 173.59844783 13.09375 173.48046875 C11.82208984 173.47297607 10.55042969 173.4654834 9.24023438 173.45776367 C-23.59182406 173.08238436 -23.59182406 173.08238436 -35.59375 162.23046875 C-43.47201324 147.93287992 -41.38784054 128.79925845 -39.59375 113.16796875 C-39.46202393 111.9919812 -39.46202393 111.9919812 -39.32763672 110.79223633 C-39.24271973 110.03450928 -39.15780273 109.27678223 -39.0703125 108.49609375 C-38.98942383 107.77099609 -38.90853516 107.04589844 -38.82519531 106.29882812 C-38.61222628 104.39558584 -38.39610641 102.49269683 -38.1796875 100.58984375 C-37.97965162 97.58189683 -37.85348445 95.15307558 -38.59375 92.23046875 C-40.51847898 90.28052498 -42.45560402 89.00022174 -44.8046875 87.6015625 C-46.59375 86.23046875 -46.59375 86.23046875 -47.21875 82.48046875 C-46.59375 79.23046875 -46.59375 79.23046875 -44.59375 77.23046875 C-41.90535615 76.96054969 -39.30233064 77.14309518 -36.59375 77.23046875 C-36.63113281 75.92078125 -36.66851562 74.61109375 -36.70703125 73.26171875 C-36.70342135 66.42697491 -35.88336583 59.69819222 -35.04956055 52.92626953 C-34.78190678 50.73584374 -34.53011713 48.54397184 -34.27929688 46.3515625 C-31.66578498 24.30250373 -31.66578498 24.30250373 -23.59375 16.23046875 C-23.24422461 14.19364564 -23.24422461 14.19364564 -23.15625 11.91796875 C-22.45374104 5.09045979 -22.45374104 5.09045979 -19.59375 2.23046875 C-13.18524308 0.26005401 -6.65471477 -0.05875537 0 0 Z M-17.59375 6.23046875 C-18.54986549 9.73732833 -18.69586174 12.83618856 -18.65625 16.48046875 C-18.64722656 17.558125 -18.63820312 18.63578125 -18.62890625 19.74609375 C-18.61730469 20.5659375 -18.60570312 21.38578125 -18.59375 22.23046875 C-18.26375 22.23046875 -17.93375 22.23046875 -17.59375 22.23046875 C-17.26375 19.26046875 -16.93375 16.29046875 -16.59375 13.23046875 C-11.26273534 12.48273816 -6.07105657 12.08155335 -0.68359375 12.09765625 C0.04637314 12.09669952 0.77634003 12.0957428 1.52842712 12.09475708 C3.0654204 12.09408113 4.60241662 12.09589426 6.1394043 12.10009766 C8.43870821 12.10539948 10.73781187 12.10016091 13.03710938 12.09375 C22.53601785 12.08992242 31.93685199 12.46468341 41.40625 13.23046875 C41.40625 16.53046875 41.40625 19.83046875 41.40625 23.23046875 C40.6853418 23.08971924 39.96443359 22.94896973 39.22167969 22.80395508 C30.1436931 21.20423843 21.3105503 20.88993348 12.11181641 20.91479492 C9.64571966 20.91798236 7.18079564 20.8943034 4.71484375 20.86914062 C-4.55464191 20.83188986 -12.60512955 20.90472178 -20.59375 26.23046875 C-20.59375 24.25046875 -20.59375 22.27046875 -20.59375 20.23046875 C-26.84697294 25.82278195 -27.30542652 31.26657082 -28.59375 39.23046875 C-28.76293945 40.22079102 -28.93212891 41.21111328 -29.10644531 42.23144531 C-31.49352741 56.30728667 -33.26603501 69.94441221 -32.59375 84.23046875 C-32.26375 84.23046875 -31.93375 84.23046875 -31.59375 84.23046875 C-31.46846924 83.37517578 -31.34318848 82.51988281 -31.21411133 81.63867188 C-26.80932507 51.96179903 -26.80932507 51.96179903 -22.51171875 39.8359375 C-21.48298256 37.37648623 -21.48298256 37.37648623 -21.59375 35.23046875 C-20.93375 35.23046875 -20.27375 35.23046875 -19.59375 35.23046875 C-23.10239198 87.73911073 -23.10239198 87.73911073 -31.59375 96.23046875 C-32.25375 95.57046875 -32.91375 94.91046875 -33.59375 94.23046875 C-33.64273438 95.07867187 -33.69171875 95.926875 -33.7421875 96.80078125 C-34.13112564 102.90308654 -34.65184961 108.88444303 -35.65625 114.91796875 C-37.48076396 127.09968604 -37.79480969 140.26217551 -34.59375 152.23046875 C-34.42230469 152.97683594 -34.25085938 153.72320312 -34.07421875 154.4921875 C-32.89443218 158.61002321 -31.4353516 160.72031247 -27.84375 163.10546875 C-16.30468068 169.38036411 -2.81097844 168.50282817 9.9296875 168.58056641 C11.89986039 168.59704915 13.8699754 168.62423637 15.83984375 168.66259766 C30.06680166 168.93711111 44.2069284 168.6373562 56.40625 160.23046875 C57.60542358 158.01148843 57.60542358 158.01148843 58.15625 155.48046875 C58.37796875 154.660625 58.5996875 153.84078125 58.828125 152.99609375 C60.19143123 146.4743315 60.59942225 140.18076404 60.59375 133.54296875 C60.59366943 132.65448242 60.59358887 131.76599609 60.59350586 130.85058594 C60.54434335 125.17257525 60.0471906 119.83574999 58.91796875 114.26171875 C57.85821424 107.98408896 57.71256422 101.58245842 57.40625 95.23046875 C55.92125 95.72546875 55.92125 95.72546875 54.40625 96.23046875 C49.32049502 75.61083293 45.04438101 55.45342587 43.40625 34.23046875 C44.06625 34.23046875 44.72625 34.23046875 45.40625 34.23046875 C51.0399374 51.13153095 53.15737151 68.53294675 54.40625 86.23046875 C61.09250787 76.20108195 55.02588612 55.39614199 53.40625 44.23046875 C53.2834668 43.36373535 53.16068359 42.49700195 53.03417969 41.60400391 C52.69882178 39.28837141 52.34024505 36.97804921 51.96875 34.66796875 C51.76378906 33.38792969 51.55882812 32.10789063 51.34765625 30.7890625 C50.25988881 26.67721129 48.6562433 23.82029379 46.40625 20.23046875 C46.07625 20.23046875 45.74625 20.23046875 45.40625 20.23046875 C45.40625 22.21046875 45.40625 24.19046875 45.40625 26.23046875 C44.74625 26.23046875 44.08625 26.23046875 43.40625 26.23046875 C43.41785156 25.60140625 43.42945313 24.97234375 43.44140625 24.32421875 C43.56078523 16.21603974 43.56078523 16.21603974 42.40625 8.23046875 C36.95979191 2.95421247 26.64923145 4.07297867 19.49609375 4.0625 C18.68435196 4.0591716 17.87261017 4.0558432 17.03627014 4.05241394 C15.33465129 4.04739128 13.63302274 4.04500416 11.93139648 4.04516602 C9.34667688 4.04297124 6.76237925 4.0247433 4.17773438 4.00585938 C2.51302227 4.00292599 0.84830817 4.00094083 -0.81640625 4 C-1.57808609 3.99281448 -2.33976593 3.98562897 -3.12452698 3.97822571 C-8.25188797 3.99980174 -12.66025582 4.82164679 -17.59375 6.23046875 Z " fill="#322E27" transform="translate(188.59375,125.76953125)"/>
<path d="M0 0 C1.20550507 -0.00287018 1.20550507 -0.00287018 2.43536377 -0.00579834 C4.12618322 -0.00715096 5.81701339 -0.00351948 7.5078125 0.00488281 C10.05753699 0.01553896 12.60654788 0.00498523 15.15625 -0.0078125 C33.46047019 -0.02477656 33.46047019 -0.02477656 41.328125 2.265625 C45.15111925 6.08861925 44.38329049 12.6021334 44.390625 17.765625 C44.3748111 19.26568631 44.3557869 20.76573539 44.328125 22.265625 C44.988125 22.265625 45.648125 22.265625 46.328125 22.265625 C46.328125 20.285625 46.328125 18.305625 46.328125 16.265625 C51.90636033 21.33533374 52.86984976 29.00043306 53.890625 36.140625 C54.01284424 36.96143555 54.13506348 37.78224609 54.26098633 38.62792969 C54.63169148 41.17199421 54.98388475 43.71785258 55.328125 46.265625 C55.43543945 47.05420898 55.54275391 47.84279297 55.65332031 48.65527344 C59.31487706 76.28549691 59.31487706 76.28549691 55.328125 82.265625 C55.26866699 81.42306152 55.26866699 81.42306152 55.20800781 80.56347656 C53.95055156 63.43845081 51.7788538 46.61781139 46.328125 30.265625 C45.338125 30.265625 44.348125 30.265625 43.328125 30.265625 C43.328125 34.225625 43.328125 38.185625 43.328125 42.265625 C40.42284888 39.36034888 40.61548181 36.05463475 40.203125 32.140625 C40.11675781 31.38652344 40.03039062 30.63242188 39.94140625 29.85546875 C39.72923239 27.99305373 39.52766737 26.12943569 39.328125 24.265625 C38.668125 24.265625 38.008125 24.265625 37.328125 24.265625 C37.80636858 28.59906072 38.285886 32.93235459 38.765625 37.265625 C38.90033203 38.48636719 39.03503906 39.70710938 39.17382812 40.96484375 C39.30595703 42.15722656 39.43808594 43.34960938 39.57421875 44.578125 C39.69466553 45.66738281 39.8151123 46.75664062 39.93920898 47.87890625 C40.37543963 51.67764547 40.85385282 55.47144752 41.328125 59.265625 C22.848125 59.265625 4.368125 59.265625 -14.671875 59.265625 C-14.671875 53.74514524 -14.63992655 48.86506965 -14.015625 43.48046875 C-13.88027344 42.29130859 -13.74492187 41.10214844 -13.60546875 39.87695312 C-13.39083984 38.0584082 -13.39083984 38.0584082 -13.171875 36.203125 C-12.95724609 34.33237305 -12.95724609 34.33237305 -12.73828125 32.42382812 C-12.38732879 29.37054168 -12.0317509 26.31787032 -11.671875 23.265625 C-12.331875 23.595625 -12.991875 23.925625 -13.671875 24.265625 C-14.06410016 26.9271529 -14.33393642 29.52529381 -14.546875 32.203125 C-16.22354525 50.10775308 -18.91758278 67.75356241 -23.62109375 85.12109375 C-24.6102109 88.82321795 -25.21348971 92.46253825 -25.671875 96.265625 C-26.001875 96.265625 -26.331875 96.265625 -26.671875 96.265625 C-28.2764757 86.6697951 -27.25623957 79.26643161 -24.72094727 70.02246094 C-21.26047546 57.35921833 -19.43028171 44.36775465 -18.671875 31.265625 C-19.331875 31.265625 -19.991875 31.265625 -20.671875 31.265625 C-25.85458985 47.21809482 -28.12359954 63.73784912 -30.671875 80.265625 C-31.001875 80.265625 -31.331875 80.265625 -31.671875 80.265625 C-32.44575092 68.1931607 -31.10801445 56.56237265 -29.359375 44.640625 C-29.19920395 43.51989594 -29.19920395 43.51989594 -29.03579712 42.37652588 C-26.02433332 21.52283189 -26.02433332 21.52283189 -19.671875 16.265625 C-19.671875 18.245625 -19.671875 20.225625 -19.671875 22.265625 C-18.62 21.62625 -17.568125 20.986875 -16.484375 20.328125 C-11.08397644 17.0455298 -5.58435681 17.11625473 0.59375 17.1328125 C1.38658386 17.13185577 2.17941772 17.13089905 2.99627686 17.12991333 C4.67053304 17.12923459 6.34479189 17.13106747 8.01904297 17.13525391 C10.55572574 17.14057799 13.09222916 17.13531324 15.62890625 17.12890625 C17.26302122 17.12956764 18.89713608 17.13085006 20.53125 17.1328125 C21.27844299 17.13078827 22.02563599 17.12876404 22.79547119 17.12667847 C29.4421136 17.15561872 35.86876235 17.65078434 42.328125 19.265625 C42.328125 15.965625 42.328125 12.665625 42.328125 9.265625 C32.0973687 8.43826901 21.94414078 8.10664201 11.68237305 8.13525391 C9.36826199 8.14067741 7.05434009 8.13523493 4.74023438 8.12890625 C3.23958291 8.12956622 1.73893157 8.13084568 0.23828125 8.1328125 C-0.43895493 8.13078827 -1.1161911 8.12876404 -1.81394958 8.12667847 C-6.5182044 8.1494319 -11.02299982 8.61357161 -15.671875 9.265625 C-16.001875 12.235625 -16.331875 15.205625 -16.671875 18.265625 C-17.001875 18.265625 -17.331875 18.265625 -17.671875 18.265625 C-17.69899653 16.349037 -17.71832597 14.4323377 -17.734375 12.515625 C-17.75177734 10.91460937 -17.75177734 10.91460937 -17.76953125 9.28125 C-17.68618942 6.70765417 -17.34132853 4.72106009 -16.671875 2.265625 C-10.96878992 0.64376488 -5.91357091 -0.03182489 0 0 Z " fill="#F39123" transform="translate(187.671875,129.734375)"/>
<path d="M0 0 C0.66 0 1.32 0 2 0 C1.88266339 2.81299075 1.75611231 5.62514093 1.625 8.4375 C1.57859375 9.5831543 1.57859375 9.5831543 1.53125 10.75195312 C1.12076845 19.2694452 0.00545851 27.45360265 -1 36 C17.48 36 35.96 36 55 36 C54.01 32.04 54.01 32.04 53 28 C52.74860318 26.45395442 52.5296182 24.90165679 52.3671875 23.34375 C52.28339844 22.54839844 52.19960937 21.75304687 52.11328125 20.93359375 C52.03464844 20.13050781 51.95601562 19.32742187 51.875 18.5 C51.78863281 17.69691406 51.70226562 16.89382812 51.61328125 16.06640625 C51.09771607 11.01714089 50.91852202 6.07491413 51 1 C51.66 1 52.32 1 53 1 C53.08451416 1.70044434 53.16902832 2.40088867 53.25610352 3.12255859 C55.30940366 19.78830976 58.04684619 36.11503007 61.71313477 52.49951172 C63.30716781 59.73927964 64.52075879 66.56360896 64 74 C52.72774191 78.9245143 41.40019175 78.61297008 29.31616211 78.52148438 C25.94116542 78.50002331 22.56829181 78.52137235 19.19335938 78.546875 C-2.16314953 78.57211467 -2.16314953 78.57211467 -11 74 C-12 73 -12 73 -12.234375 70.140625 C-12.15361491 64.83737905 -10.59005325 59.84819363 -9.25 54.75 C-6.91617748 45.46996467 -5.06979316 36.21910614 -3.6875 26.75 C-3.44918457 25.12916504 -3.44918457 25.12916504 -3.20605469 23.47558594 C-2.2762909 16.82419887 -1.66667984 10.19679677 -1.25708008 3.49316406 C-1 1 -1 1 0 0 Z " fill="#242C34" transform="translate(174,153)"/>
<path d="M0 0 C0.99 0.99 1.98 1.98 3 3 C3.66 2.67 4.32 2.34 5 2 C5.04898438 3.01578125 5.09796875 4.0315625 5.1484375 5.078125 C5.64418181 14.46560844 5.64418181 14.46560844 7.0625 23.75 C9.40961921 36.8191865 9.45786624 52.35828977 5 65 C1.87839699 68.80021236 -1.39348329 70.32490302 -6 72 C-6.99 72 -7.98 72 -9 72 C-9 71.34 -9 70.68 -9 70 C-9.99 69.67 -10.98 69.34 -12 69 C-11.8671875 66.73828125 -11.8671875 66.73828125 -11 64 C-8.3828125 61.98046875 -8.3828125 61.98046875 -5.125 60.1875 C-4.05507812 59.58292969 -2.98515625 58.97835937 -1.8828125 58.35546875 C1 57 1 57 4 57 C4.33 53.7 4.66 50.4 5 47 C4.34 48.32 3.68 49.64 3 51 C0.33256345 52.26550853 -2.16468917 53.29402652 -4.9375 54.25 C-5.66646484 54.518125 -6.39542969 54.78625 -7.14648438 55.0625 C-10.20871595 56.16277019 -12.72359021 57 -16 57 C-15.77180238 53.12064045 -15.10566897 52.09455351 -12.140625 49.44140625 C-8.16645267 45.58680241 -7.17279453 41.32208308 -5.875 36.0625 C-5.62911133 35.13824219 -5.38322266 34.21398437 -5.12988281 33.26171875 C-4.40156647 30.51220556 -3.69927685 27.75701823 -3 25 C-2.42471077 22.80381293 -1.84323528 20.60940655 -1.25830078 18.41577148 C-0.7827311 16.62336261 -0.32055268 14.82741571 0.140625 13.03125 C0.92764872 10.2552027 1.87151556 7.65292833 3 5 C2.01 4.67 1.02 4.34 0 4 C0 2.68 0 1.36 0 0 Z " fill="#DD852F" transform="translate(241,219)"/>
<path d="M0 0 C0.66 0 1.32 0 2 0 C9.27696511 14.70875926 11.20785534 32.7872893 11.0625 49 C11.05798828 49.96550781 11.05347656 50.93101562 11.04882812 51.92578125 C11.03715417 54.28392089 11.02078021 56.64192602 11 59 C12.32 59 13.64 59 15 59 C15.33 58.34 15.66 57.68 16 57 C23.06214162 64.06214162 21.21996725 89.23586184 21.3125 98.75 C21.29013429 105.03936851 20.76537441 111.16821227 19.75 117.375 C19.64083252 118.07077148 19.53166504 118.76654297 19.41918945 119.48339844 C18.43910973 124.68906779 16.57705634 128.22310034 12.17578125 131.2578125 C-1.41570027 137.58340767 -1.41570027 137.58340767 -9 137 C-9 136.34 -9 135.68 -9 135 C-6.69 134.67 -4.38 134.34 -2 134 C-2 133.34 -2 132.68 -2 132 C-1.02417969 131.68289063 -0.04835937 131.36578125 0.95703125 131.0390625 C8.19645082 128.66622658 8.19645082 128.66622658 13.5625 123.62109375 C14.31985842 121.03739705 14.73646654 118.67860128 15 116 C15.1753125 114.94039063 15.350625 113.88078125 15.53125 112.7890625 C16.08984095 108.27378562 16.1913843 103.85755877 16.1875 99.3125 C16.18741943 98.42473877 16.18733887 97.53697754 16.18725586 96.62231445 C16.13788778 90.92419891 15.64346139 85.55934461 14.51171875 79.96484375 C13.48845706 74.03617485 13.31154258 68.00129395 13 62 C12.01 62 11.02 62 10 62 C8.88806417 57.29223834 7.7858875 52.58232495 6.69189453 47.87036133 C6.32008425 46.27471556 5.94581925 44.67963937 5.56884766 43.08520508 C2.18389742 28.75558239 -0.49652828 14.81309356 0 0 Z " fill="#312D28" transform="translate(232,160)"/>
<path d="M0 0 C1.00258347 0.00045822 2.00516693 0.00091644 3.03813171 0.00138855 C5.14335321 0.00439388 7.24857282 0.01222822 9.35375977 0.0246582 C12.58162261 0.04301085 15.80919958 0.04516695 19.03710938 0.04492188 C21.08724207 0.04983423 23.13737282 0.05566131 25.1875 0.0625 C26.15311356 0.06361282 27.11872711 0.06472565 28.11360168 0.06587219 C29.00850815 0.07225204 29.90341461 0.0786319 30.82543945 0.08520508 C31.61183304 0.08901688 32.39822662 0.09282867 33.20845032 0.09675598 C35.26171875 0.23046875 35.26171875 0.23046875 38.26171875 1.23046875 C38.75671875 6.67546875 38.75671875 6.67546875 39.26171875 12.23046875 C38.15256104 12.01608154 38.15256104 12.01608154 37.02099609 11.79736328 C25.31417074 9.81300872 13.7248961 10.00641232 1.88671875 10.10546875 C-0.21744364 10.11552255 -2.3216107 10.12464414 -4.42578125 10.1328125 C-9.5300653 10.15462678 -14.6341204 10.18902335 -19.73828125 10.23046875 C-19.86328125 4.48046875 -19.86328125 4.48046875 -18.73828125 2.23046875 C-12.44133695 0.16835662 -6.58521753 -0.04952231 0 0 Z " fill="#212B2F" transform="translate(191.73828125,137.76953125)"/>
<path d="M0 0 C0.33 0 0.66 0 1 0 C1.09688221 5.44693314 1.12862175 10.63904667 0 16 C-0.495 15.01 -0.495 15.01 -1 14 C-3.32461782 15.04082888 -5.63218091 16.10541145 -7.9375 17.1875 C-8.59685547 17.47947266 -9.25621094 17.77144531 -9.93554688 18.07226562 C-12.10772861 19.06018878 -12.10772861 19.06018878 -15 21 C-16.05150307 23.61243936 -16.05150307 23.61243936 -16 26 C-15.34 26.33 -14.68 26.66 -14 27 C-14 27.99 -14 28.98 -14 30 C-20.12950502 31.78548208 -25.61802973 32.29479713 -31.984375 32.265625 C-33.38964447 32.26849518 -33.38964447 32.26849518 -34.82330322 32.27142334 C-36.79659292 32.27277775 -38.76989175 32.2691336 -40.74316406 32.26074219 C-43.72742276 32.25008066 -46.71107288 32.26063806 -49.6953125 32.2734375 C-72.88957327 32.29186489 -72.88957327 32.29186489 -83 28 C-79.72814447 26.92689142 -77.57052408 27.10736898 -74.25 27.9375 C-73.45078125 28.13214844 -72.6515625 28.32679688 -71.828125 28.52734375 C-71.22484375 28.68332031 -70.6215625 28.83929688 -70 29 C-69.67 28.01 -69.34 27.02 -69 26 C-68.67 26.66 -68.34 27.32 -68 28 C-61.26687373 29.44792847 -54.04342036 29.15886237 -47.1875 29.125 C-46.23278809 29.12306641 -45.27807617 29.12113281 -44.29443359 29.11914062 C-37.15626819 29.07563733 -30.10239327 28.75044155 -23 28 C-23.495 26.515 -23.495 26.515 -24 25 C-25.08941895 25.00523682 -26.17883789 25.01047363 -27.30126953 25.01586914 C-31.36034314 25.03403023 -35.41941318 25.04547251 -39.47851562 25.05493164 C-41.23210251 25.05994651 -42.98568524 25.06676002 -44.73925781 25.07543945 C-47.2662865 25.08763 -49.79325968 25.09325688 -52.3203125 25.09765625 C-53.09867462 25.10281754 -53.87703674 25.10797882 -54.6789856 25.11329651 C-58.9003949 25.1137272 -62.84091388 24.8358664 -67 24 C-66.360625 23.87625 -65.72125 23.7525 -65.0625 23.625 C-64.381875 23.41875 -63.70125 23.2125 -63 23 C-62.67 22.34 -62.34 21.68 -62 21 C-61.34 21.33 -60.68 21.66 -60 22 C-55.8950916 22.21102648 -51.78862027 22.18579648 -47.67871094 22.18530273 C-45.63976008 22.18748421 -43.60135475 22.20563067 -41.5625 22.22460938 C-40.27601563 22.22654297 -38.98953125 22.22847656 -37.6640625 22.23046875 C-36.48279785 22.23457764 -35.3015332 22.23868652 -34.08447266 22.24291992 C-31.10608326 22.00835467 -29.38897722 21.77749994 -27 20 C-26.62599214 17.67284 -26.29235267 15.33882138 -26 13 C-25.01 12.34 -24.02 11.68 -23 11 C-22.67 10.01 -22.34 9.02 -22 8 C-21.01 8.33 -20.02 8.66 -19 9 C-19.66 10.65 -20.32 12.3 -21 14 C-20.13117188 13.66226562 -19.26234375 13.32453125 -18.3671875 12.9765625 C-17.21476562 12.53054688 -16.06234375 12.08453125 -14.875 11.625 C-13.73804688 11.18414062 -12.60109375 10.74328125 -11.4296875 10.2890625 C-8 9 -8 9 -4.65625 8.0625 C-3.7796875 7.711875 -2.903125 7.36125 -2 7 C-0.53977565 3.47548841 -0.53977565 3.47548841 0 0 Z " fill="#EA8F28" transform="translate(246,262)"/>
<path d="M0 0 C0.33 0 0.66 0 1 0 C1 4.62 1 9.24 1 14 C2.98 14 4.96 14 7 14 C7 14.66 7 15.32 7 16 C7.99 16.33 8.98 16.66 10 17 C10.28746094 17.75410156 10.57492188 18.50820313 10.87109375 19.28515625 C12.66080756 23.58913929 16.21574905 25.75839845 19.78515625 28.62109375 C22.40356621 31.43346 22.73386908 33.22528593 23 37 C18.19540003 36.50722052 14.50349621 34.9356429 10.19140625 32.921875 C7.4988163 31.78916336 4.89873118 31.29730576 2 31 C2.33 33.31 2.66 35.62 3 38 C3.55558594 37.77570313 4.11117187 37.55140625 4.68359375 37.3203125 C7.96067237 36.86715829 9.33298925 38.08826144 12.0625 39.875 C14.77259049 41.62738934 16.92791826 42.97597275 20 44 C20 45.65 20 47.3 20 49 C16.35477464 50.60034284 14.34649818 51.05974107 10.375 50.375 C6.1516432 48.65437315 3.9938968 47.25966672 2.12890625 43.01953125 C-0.7593817 34.99036713 -1.16591754 27.01197118 -1.125 18.5625 C-1.12886719 17.76779297 -1.13273438 16.97308594 -1.13671875 16.15429688 C-1.12784064 10.698699 -0.68270037 5.41283863 0 0 Z " fill="#DF8E34" transform="translate(153,239)"/>
<path d="M0 0 C1.20550507 -0.00287018 1.20550507 -0.00287018 2.43536377 -0.00579834 C4.12618322 -0.00715096 5.81701339 -0.00351948 7.5078125 0.00488281 C10.05753699 0.01553896 12.60654788 0.00498523 15.15625 -0.0078125 C33.46047019 -0.02477656 33.46047019 -0.02477656 41.328125 2.265625 C45.05341236 5.99091236 44.38265032 12.21765304 44.390625 17.265625 C44.37485841 18.59902787 44.35590014 19.93241821 44.328125 21.265625 C42.328125 19.265625 42.328125 19.265625 42.1328125 16.8828125 C42.19791667 14.34375 42.26302083 11.8046875 42.328125 9.265625 C32.0973687 8.43826901 21.94414078 8.10664201 11.68237305 8.13525391 C9.36826199 8.14067741 7.05434009 8.13523493 4.74023438 8.12890625 C3.23958291 8.12956622 1.73893157 8.13084568 0.23828125 8.1328125 C-0.43895493 8.13078827 -1.1161911 8.12876404 -1.81394958 8.12667847 C-6.5182044 8.1494319 -11.02299982 8.61357161 -15.671875 9.265625 C-16.001875 12.235625 -16.331875 15.205625 -16.671875 18.265625 C-17.001875 18.265625 -17.331875 18.265625 -17.671875 18.265625 C-17.69899653 16.349037 -17.71832597 14.4323377 -17.734375 12.515625 C-17.74597656 11.44828125 -17.75757813 10.3809375 -17.76953125 9.28125 C-17.68618942 6.70765417 -17.34132853 4.72106009 -16.671875 2.265625 C-10.96878992 0.64376488 -5.91357091 -0.03182489 0 0 Z " fill="#DF812B" transform="translate(187.671875,129.734375)"/>
<path d="M0 0 C5.53588533 -0.02464775 11.071739 -0.04283496 16.60766602 -0.05493164 C18.4924373 -0.05997244 20.37720465 -0.06680498 22.26196289 -0.07543945 C24.96501636 -0.08751617 27.66801831 -0.09323068 30.37109375 -0.09765625 C31.21900986 -0.10281754 32.06692596 -0.10797882 32.9405365 -0.11329651 C34.96071068 -0.11349195 36.98077934 -0.06206211 39 0 C39.495 0.495 39.495 0.495 40 1 C39.875 4.375 39.875 4.375 39 8 C33.27195184 12.54582087 26.46113748 11.51360926 19.5 11.5 C18.18128906 11.52835937 16.86257812 11.55671875 15.50390625 11.5859375 C14.23417969 11.58851563 12.96445313 11.59109375 11.65625 11.59375 C10.49931641 11.60083984 9.34238281 11.60792969 8.15039062 11.61523438 C3.9802125 10.80084745 2.49605099 9.39902726 0 6 C-0.3125 2.6875 -0.3125 2.6875 0 0 Z " fill="#2C2C28" transform="translate(181,274)"/>
<path d="M0 0 C5.13601551 -0.20963329 9.09875093 0.53822396 14 2 C20.0969488 2.9490416 26.03212895 3.14663855 32.1953125 3.1328125 C33.14638885 3.13376923 34.09746521 3.13472595 35.07736206 3.13571167 C37.07582669 3.13638854 39.07429357 3.13456886 41.07275391 3.13037109 C44.12277165 3.12500392 47.17264296 3.130339 50.22265625 3.13671875 C52.17187532 3.13605811 54.12109431 3.13477725 56.0703125 3.1328125 C57.42988571 3.13584885 57.42988571 3.13584885 58.81692505 3.13894653 C63.32577071 3.12231657 67.56250379 2.91700363 72 2 C72 2.66 72 3.32 72 4 C69.69 4.33 67.38 4.66 65 5 C65.495 6.485 65.495 6.485 66 8 C44.54360085 11.35256237 20.00129329 10.97318295 0 2 C0 1.34 0 0.68 0 0 Z " fill="#343736" transform="translate(158,290)"/>
<path d="M0 0 C0.66 0 1.32 0 2 0 C9.45118823 15.06091238 11.1973031 33.42958859 11.0625 50 C11.05798828 51.06089844 11.05347656 52.12179688 11.04882812 53.21484375 C11.03713843 55.80995598 11.02075276 58.40494709 11 61 C11.66 61.33 12.32 61.66 13 62 C12.01 62 11.02 62 10 62 C8.88806417 57.29223834 7.7858875 52.58232495 6.69189453 47.87036133 C6.32008425 46.27471556 5.94581925 44.67963937 5.56884766 43.08520508 C2.18389742 28.75558239 -0.49652828 14.81309356 0 0 Z " fill="#20292C" transform="translate(232,160)"/>
<path d="M0 0 C0.66 0 1.32 0 2 0 C2.87793911 16.29064798 -1.04180521 32.30786734 -5 48 C-5.99 48 -6.98 48 -8 48 C-8.5495481 31.73744687 -7.42010215 14.84020431 0 0 Z " fill="#352C20" transform="translate(167,161)"/>
<path d="M0 0 C1.14250465 0.00333092 1.14250465 0.00333092 2.30809021 0.00672913 C3.16890701 0.00680466 4.02972382 0.00688019 4.91662598 0.00695801 C5.8520372 0.01211929 6.78744843 0.01728058 7.75120544 0.02259827 C8.70422043 0.02401321 9.65723541 0.02542816 10.63912964 0.02688599 C13.69605085 0.032503 16.75289996 0.04505836 19.80979919 0.05775452 C21.87685543 0.06276733 23.94391281 0.06733061 26.01097107 0.07142639 C31.08977507 0.08247795 36.16852489 0.09975397 41.24729919 0.12025452 C41.90729919 1.44025452 42.56729919 2.76025452 43.24729919 4.12025452 C39.10295852 8.26459519 23.77383599 6.22935409 18.05979919 6.24525452 C16.68948547 6.25214294 16.68948547 6.25214294 15.29148865 6.25917053 C9.22178992 6.24551111 3.27412464 5.83503943 -2.75270081 5.12025452 C-2.75270081 0.18886549 -2.75270081 0.18886549 0 0 Z " fill="#33271A" transform="translate(180.75270080566406,285.87974548339844)"/>
<path d="M0 0 C3.006818 1.33999498 4.99762609 2.79845291 7.25 5.1875 C9.82175414 7.87058549 12.48293545 10.23018988 15.375 12.5625 C18.21674227 14.98730711 18.91831403 15.71920449 20 19.4375 C20 20.283125 20 21.12875 20 22 C15.41216386 21.43682251 11.86982312 20.20561419 7.75 18.125 C6.19539062 17.35542969 6.19539062 17.35542969 4.609375 16.5703125 C2 15 2 15 0 12 C-0.1953125 9.08203125 -0.1953125 9.08203125 -0.125 5.8125 C-0.10695312 4.72582031 -0.08890625 3.63914062 -0.0703125 2.51953125 C-0.04710937 1.68808594 -0.02390625 0.85664063 0 0 Z " fill="#393429" transform="translate(156,254)"/>
<path d="M0 0 C0.08172652 1.72836466 0.13951818 3.45786959 0.1875 5.1875 C0.23970703 6.63189453 0.23970703 6.63189453 0.29296875 8.10546875 C-0.05769187 11.5699957 -0.84767651 13.27033651 -3 16 C-8.1235915 19.18515264 -13.95779497 21.51009148 -20 22 C-19.49282123 17.73252614 -18.28986836 15.79299398 -15.25390625 12.79296875 C-14.49916016 12.04208984 -13.74441406 11.29121094 -12.96679688 10.51757812 C-12.17337891 9.74865234 -11.37996094 8.97972656 -10.5625 8.1875 C-9.77294922 7.39923828 -8.98339844 6.61097656 -8.16992188 5.79882812 C-2.2807224 0 -2.2807224 0 0 0 Z " fill="#362C1F" transform="translate(245,254)"/>
<path d="M0 0 C0.33 0 0.66 0 1 0 C1 3.63 1 7.26 1 11 C2.918125 10.938125 2.918125 10.938125 4.875 10.875 C7.0546875 10.8046875 7.0546875 10.8046875 9 11 C9.66 11.66 10.32 12.32 11 13 C10.8852459 20.1147541 10.8852459 20.1147541 7.5625 23.4375 C5 25 5 25 3 26 C2.53476937 27.89533342 2.53476937 27.89533342 2.375 30.0625 C2.189375 32.0115625 2.189375 32.0115625 2 34 C1.67 34 1.34 34 1 34 C0.67 31.36 0.34 28.72 0 26 C-1.65 26.33 -3.3 26.66 -5 27 C-5.25 20.375 -5.25 20.375 -3 17 C-2.67 17.99 -2.34 18.98 -2 20 C-1.34 18.02 -0.68 16.04 0 14 C-0.33 13.67 -0.66 13.34 -1 13 C-0.90982004 10.80949979 -0.75333792 8.621534 -0.5625 6.4375 C-0.46066406 5.23996094 -0.35882813 4.04242188 -0.25390625 2.80859375 C-0.17011719 1.88175781 -0.08632812 0.95492187 0 0 Z " fill="#33352F" transform="translate(248,192)"/>
<path d="M0 0 C0.99 0 1.98 0 3 0 C2.37222692 7.86178557 1.43747058 15.64108876 0.25 23.4375 C0.07879639 24.56260986 -0.09240723 25.68771973 -0.26879883 26.84692383 C-1.66865173 35.66605953 -3.61741123 44.24135525 -5.94921875 52.85546875 C-6.9383359 56.55759295 -7.54161471 60.19691325 -8 64 C-8.33 64 -8.66 64 -9 64 C-10.55983644 54.67186922 -9.69747078 47.51868749 -7.19189453 38.55664062 C-4.95677515 30.37705481 -3.53446906 22.11053166 -2.1875 13.75 C-2.07686218 13.06663574 -1.96622437 12.38327148 -1.85223389 11.67919922 C-1.22378988 7.78783833 -0.60685246 3.89478299 0 0 Z " fill="#CD8A3B" transform="translate(170,162)"/>
<path d="M0 0 C0.66 0 1.32 0 2 0 C2 9 2 9 -2 34 C15.49 34 32.98 34 51 34 C50.67 33.01 50.34 32.02 50 31 C49.93062938 28.77181559 49.91542916 26.54165476 49.9375 24.3125 C49.94652344 23.13300781 49.95554688 21.95351562 49.96484375 20.73828125 C49.97644531 19.83464844 49.98804688 18.93101562 50 18 C50.33 18 50.66 18 51 18 C51.66 23.94 52.32 29.88 53 36 C34.52 36 16.04 36 -3 36 C-3 30.47952024 -2.96805155 25.59944465 -2.34375 20.21484375 C-2.20839844 19.02568359 -2.07304687 17.83652344 -1.93359375 16.61132812 C-1.79050781 15.39896484 -1.64742187 14.18660156 -1.5 12.9375 C-1.35691406 11.69033203 -1.21382812 10.44316406 -1.06640625 9.15820312 C-0.71545379 6.10491668 -0.3598759 3.05224532 0 0 Z " fill="#CB8B39" transform="translate(176,153)"/>
<path d="M0 0 C0.33 0 0.66 0 1 0 C1 1.98 1 3.96 1 6 C0.01 6.33 -0.98 6.66 -2 7 C-2.33820166 8.5823006 -2.67035939 10.16589375 -3 11.75 C-3.185625 12.63171875 -3.37125 13.5134375 -3.5625 14.421875 C-4.11153675 17.22143965 -4.11153675 17.22143965 -4 21 C-3.01 19.02 -2.02 17.04 -1 15 C0 17 0 17 -0.890625 19.9921875 C-1.34200302 21.28706863 -1.79527629 22.58128999 -2.25 23.875 C-5.19487778 32.70556162 -6.47585957 41.57291268 -7.69140625 50.77392578 C-8.30628596 55.20942675 -9.14333272 59.60580078 -10 64 C-10.33 64 -10.66 64 -11 64 C-11.77387592 51.9275357 -10.43613945 40.29674765 -8.6875 28.375 C-8.5807193 27.62784729 -8.4739386 26.88069458 -8.36392212 26.11090088 C-5.45219306 5.94784697 -5.45219306 5.94784697 0 0 Z " fill="#AF773F" transform="translate(167,146)"/>
<path d="M0 0 C2.7115029 4.06725434 2.57867488 7.1547611 3 12 C3.33 8.7 3.66 5.4 4 2 C4.33 2 4.66 2 5 2 C5.06469482 2.70793701 5.12938965 3.41587402 5.19604492 4.14526367 C6.45164977 17.48916383 7.8987945 30.51187056 11.46166992 43.46166992 C13.13997238 49.69473218 12.96349527 53.19914797 10 59 C0 12.14320886 0 12.14320886 0 0 Z " fill="#D79038" transform="translate(227,158)"/>
<path d="M0 0 C0.72614502 0.00008057 1.45229004 0.00016113 2.20043945 0.00024414 C4.4150722 -0.00194063 6.62920561 -0.02008844 8.84375 -0.0390625 C10.245441 -0.04199669 11.64713437 -0.04398131 13.04882812 -0.04492188 C14.33072021 -0.04903076 15.6126123 -0.05313965 16.93334961 -0.05737305 C19.99023438 0.18554688 19.99023438 0.18554688 21.99023438 2.18554688 C21.99023438 3.17554688 21.99023438 4.16554687 21.99023438 5.18554688 C10.44023437 5.18554688 -1.10976562 5.18554688 -13.00976562 5.18554688 C-11.1975043 -2.06349842 -6.56901615 0.02305445 0 0 Z " fill="#212724" transform="translate(196.009765625,250.814453125)"/>
<path d="M0 0 C0.88398972 -0.00095673 1.76797943 -0.00191345 2.67875671 -0.00289917 C4.54552278 -0.00357823 6.41229124 -0.00174308 8.27905273 0.00244141 C11.1164286 0.00777436 13.95364479 0.00249698 16.79101562 -0.00390625 C18.61067743 -0.00324505 20.43033913 -0.00196301 22.25 0 C23.0898494 -0.00202423 23.92969879 -0.00404846 24.79499817 -0.00613403 C29.8909792 0.01384257 34.77943308 0.40359422 39.82421875 1.1328125 C39.82421875 1.7928125 39.82421875 2.4528125 39.82421875 3.1328125 C22.00421875 3.4628125 4.18421875 3.7928125 -14.17578125 4.1328125 C-14.17578125 3.1428125 -14.17578125 2.1528125 -14.17578125 1.1328125 C-9.44674963 -0.0741663 -4.8445946 -0.01159277 0 0 Z " fill="#1D2426" transform="translate(188.17578125,125.8671875)"/>
<path d="M0 0 C0.66 0.66 1.32 1.32 2 2 C8.7685302 3.38456585 15.93247059 3.15958216 22.8125 3.125 C23.76866211 3.12234131 24.72482422 3.11968262 25.70996094 3.11694336 C37.68920264 3.64381237 37.68920264 3.64381237 49 1 C49 1.66 49 2.32 49 3 C49.99 3.66 50.98 4.32 52 5 C49.16621366 5.80364051 46.63939073 6.13003815 43.69726562 6.14526367 C42.43444763 6.15483345 42.43444763 6.15483345 41.14611816 6.16459656 C39.78988342 6.16626579 39.78988342 6.16626579 38.40625 6.16796875 C37.4637439 6.17129715 36.52123779 6.17462555 35.5501709 6.17805481 C33.55298347 6.18311602 31.55578759 6.18546338 29.55859375 6.18530273 C26.53891542 6.18747204 23.51961289 6.20558858 20.5 6.22460938 C-2.87595043 6.2946074 -2.87595043 6.2946074 -13 2 C-9.72814447 0.92689142 -7.57052408 1.10736898 -4.25 1.9375 C-3.45078125 2.13214844 -2.6515625 2.32679688 -1.828125 2.52734375 C-0.92320312 2.76130859 -0.92320312 2.76130859 0 3 C0 2.01 0 1.02 0 0 Z " fill="#D89648" transform="translate(176,288)"/>
<path d="M0 0 C2.35117929 2.35117929 2.4461764 3.37712274 3 6.59375 C3.1640332 7.53283203 3.32806641 8.47191406 3.49707031 9.43945312 C3.66303711 10.44943359 3.82900391 11.45941406 4 12.5 C4.17370117 13.53576172 4.34740234 14.57152344 4.52636719 15.63867188 C10.78782103 53.81826846 10.78782103 53.81826846 6 61 C5.94054199 60.15743652 5.94054199 60.15743652 5.87988281 59.29785156 C4.92523792 46.2967485 3.22170174 33.74686987 0.42529297 21.015625 C-0.13568859 18.3569202 -0.58267917 15.68462059 -1 13 C-0.01 13.33 0.98 13.66 2 14 C1.855625 13.40832031 1.71125 12.81664062 1.5625 12.20703125 C0.59177306 8.07470059 -0.27593702 4.2770238 0 0 Z " fill="#B5854B" transform="translate(237,151)"/>
<path d="M0 0 C0.33 0 0.66 0 1 0 C1.23286829 5.6147132 0.92555736 10.89067386 0 16.4375 C-1.90030112 28.87089875 -1.99142392 41.74347142 1 54 C1.144375 54.78117187 1.28875 55.56234375 1.4375 56.3671875 C2.17357858 60.50177949 2.17357858 60.50177949 5 63.375 C5.66 63.58125 6.32 63.7875 7 64 C7.66 64.66 8.32 65.32 9 66 C6.3125 66.8125 6.3125 66.8125 3 67 C-0.72649871 64.12043282 -2.60897307 61.44924343 -4 57 C-4.18286133 53.67626953 -4.18286133 53.67626953 -4.08203125 49.8828125 C-4.06516266 49.19656799 -4.04829407 48.51032349 -4.03091431 47.80328369 C-3.97085643 45.57659971 -3.89293714 43.35103454 -3.8125 41.125 C-3.78866241 40.36954895 -3.76482483 39.6140979 -3.74026489 38.83575439 C-3.31993516 25.76063984 -2.09208467 12.92092542 0 0 Z " fill="#3C2B19" transform="translate(154,224)"/>
<path d="M0 0 C0.66 0 1.32 0 2 0 C2.08451416 0.70044434 2.16902832 1.40088867 2.25610352 2.12255859 C4.30940366 18.78830976 7.04684619 35.11503007 10.71313477 51.49951172 C12.30716781 58.73927964 13.52075879 65.56360896 13 73 C12.67 73 12.34 73 12 73 C11.79636841 71.85954224 11.79636841 71.85954224 11.58862305 70.69604492 C10.96001154 67.19226068 10.32380193 63.68989546 9.6875 60.1875 C9.47416016 58.99189453 9.26082031 57.79628906 9.04101562 56.56445312 C7.70597628 49.25162567 6.05076247 42.14235988 4 35 C2.37219821 29.18871419 1.46298949 23.50520417 0.875 17.5 C0.78863281 16.69691406 0.70226562 15.89382812 0.61328125 15.06640625 C0.09771607 10.01714089 -0.08147798 5.07491413 0 0 Z " fill="#3B2910" transform="translate(225,154)"/>
<path d="M0 0 C0.33 0 0.66 0 1 0 C1.33 2.97 1.66 5.94 2 9 C2.66 8.01 3.32 7.02 4 6 C4 9.3 4 12.6 4 16 C4.66 16 5.32 16 6 16 C5.71831703 17.95979427 5.42433283 19.91782378 5.125 21.875 C4.96257812 22.96554688 4.80015625 24.05609375 4.6328125 25.1796875 C4 28 4 28 2 30 C1.67 29.01 1.34 28.02 1 27 C1.66 27 2.32 27 3 27 C3.33 24.36 3.66 21.72 4 19 C2.68 19.33 1.36 19.66 0 20 C0 20.66 0 21.32 0 22 C-3.40312738 20.94124926 -6.01353231 19.99097846 -9 18 C-9.1875 15.375 -9.1875 15.375 -9 13 C-6.36 13 -3.72 13 -1 13 C-0.67 8.71 -0.34 4.42 0 0 Z " fill="#42301C" transform="translate(155,193)"/>
<path d="M0 0 C0 0.33 0 0.66 0 1 C-1.7491497 1.33776684 -3.49936145 1.67003671 -5.25 2 C-6.71179688 2.2784375 -6.71179688 2.2784375 -8.203125 2.5625 C-11 3 -11 3 -15 3 C-15 4.32 -15 5.64 -15 7 C-14.02740234 6.75660889 -14.02740234 6.75660889 -13.03515625 6.50830078 C-9.16135438 5.85955114 -5.35240622 5.85711149 -1.4375 5.8671875 C-0.60976074 5.86623077 0.21797852 5.86527405 1.07080078 5.86428833 C2.82242916 5.86360912 4.57406008 5.86544535 6.32568359 5.86962891 C8.96327622 5.87492624 11.60069428 5.86970354 14.23828125 5.86328125 C23.54502779 5.85998473 32.73182866 6.07191441 42 7 C42.33 6.01 42.66 5.02 43 4 C43.33 4 43.66 4 44 4 C44.8320582 9.72040011 45.12036664 15.22240116 45 21 C43 19 43 19 42.8046875 16.6171875 C42.86979167 14.078125 42.93489583 11.5390625 43 9 C32.7692437 8.17264401 22.61601578 7.84101701 12.35424805 7.86962891 C10.04013699 7.87505241 7.72621509 7.86960993 5.41210938 7.86328125 C3.91145791 7.86394122 2.41080657 7.86522068 0.91015625 7.8671875 C0.23292007 7.86516327 -0.4443161 7.86313904 -1.14207458 7.86105347 C-5.8463294 7.8838069 -10.35112482 8.34794661 -15 9 C-15.33 11.97 -15.66 14.94 -16 18 C-16.33 18 -16.66 18 -17 18 C-17.02712153 16.083412 -17.04645097 14.1667127 -17.0625 12.25 C-17.07410156 11.18265625 -17.08570313 10.1153125 -17.09765625 9.015625 C-17.01510087 6.46631499 -16.74617558 4.42066409 -16 2 C-10.42932723 0.40837921 -5.78898419 -0.20674944 0 0 Z " fill="#BF7F43" transform="translate(187,130)"/>
<path d="M0 0 C0.99 0 1.98 0 3 0 C3 0.99 3 1.98 3 3 C4.65 3 6.3 3 8 3 C8 3.33 8 3.66 8 4 C5.36 4.33 2.72 4.66 0 5 C0 7.31 0 9.62 0 12 C0.33 11.67 0.66 11.34 1 11 C6.51595519 10.13184656 11.86255957 9.86261687 17.4375 9.90234375 C18.20304199 9.9037587 18.96858398 9.90517365 19.75732422 9.90663147 C22.17159142 9.91217147 24.58576144 9.92471221 27 9.9375 C28.64973823 9.94252277 30.29947794 9.94708431 31.94921875 9.95117188 C35.96618255 9.96212114 39.98307487 9.97934334 44 10 C44 10.33 44 10.66 44 11 C43.01193359 11.02505615 42.02386719 11.0501123 41.00585938 11.07592773 C37.30815676 11.17074718 33.61060975 11.27077975 29.91308594 11.37231445 C28.31872216 11.41538357 26.72432053 11.45707576 25.12988281 11.49731445 C22.82605625 11.55570305 20.52241541 11.61919211 18.21875 11.68359375 C17.51633179 11.70030624 16.81391357 11.71701874 16.09020996 11.73423767 C11.33762717 11.87361589 6.71078129 12.35111297 2 13 C1.67 15.64 1.34 18.28 1 21 C1.99 21.33 2.98 21.66 4 22 C-0.75 25 -0.75 25 -3 25 C-2.89020915 21.39520054 -2.75955955 17.79145321 -2.625 14.1875 C-2.5940625 13.16333984 -2.563125 12.13917969 -2.53125 11.08398438 C-2.49257812 10.10107422 -2.45390625 9.11816406 -2.4140625 8.10546875 C-2.3826416 7.19949951 -2.3512207 6.29353027 -2.31884766 5.36010742 C-2 3 -2 3 0 0 Z " fill="#413320" transform="translate(171,127)"/>
<path d="M0 0 C0.66 0 1.32 0 2 0 C3.35439668 2.70879335 3.06501451 5.00933268 3 8 C0.69 8 -1.62 8 -4 8 C-4.33 8.99 -4.66 9.98 -5 11 C-4.34 11.33 -3.68 11.66 -3 12 C-3.33 12.66 -3.66 13.32 -4 14 C-4.68707031 13.57847656 -5.37414062 13.15695312 -6.08203125 12.72265625 C-6.98308594 12.17480469 -7.88414062 11.62695312 -8.8125 11.0625 C-10.15248047 10.24458984 -10.15248047 10.24458984 -11.51953125 9.41015625 C-14.00703562 7.88990422 -14.00703562 7.88990422 -17 7 C-17.33 7.99 -17.66 8.98 -18 10 C-19.4783226 7.04335481 -19.06032783 4.25770263 -19 1 C-14.39818526 0.73529384 -11.48890674 1.3921351 -7.375 3.4375 C-4.2544904 4.97153203 -1.41538267 6.30249227 2 7 C1.34 4.69 0.68 2.38 0 0 Z " fill="#DB9138" transform="translate(174,269)"/>
<path d="M0 0 C0.66 0 1.32 0 2 0 C1.49595921 12.08371462 0.5814596 24.00854417 -1 36 C-1.99 36 -2.98 36 -4 36 C-4.33 38.97 -4.66 41.94 -5 45 C-5.99741049 41.01035806 -5.90015005 39.12517599 -5.2578125 35.16015625 C-5.07863281 34.01353516 -4.89945313 32.86691406 -4.71484375 31.68554688 C-4.52019531 30.48994141 -4.32554687 29.29433594 -4.125 28.0625 C-2.80327955 19.85416025 -1.72407504 11.75202959 -1.24169922 3.44702148 C-1 1 -1 1 0 0 Z " fill="#422C11" transform="translate(174,153)"/>
<path d="M0 0 C0.33 0 0.66 0 1 0 C1.12375 0.804375 1.2475 1.60875 1.375 2.4375 C1.58125 3.283125 1.7875 4.12875 2 5 C2.66 5.33 3.32 5.66 4 6 C4.02726927 8.35424675 4.04696719 10.70816962 4.0625 13.0625 C4.07410156 14.37347656 4.08570313 15.68445313 4.09765625 17.03515625 C4.00452335 20.8163519 3.61448726 24.27920707 3 28 C5.64 28 8.28 28 11 28 C11 28.33 11 28.66 11 29 C8.69 29.33 6.38 29.66 4 30 C3.34 32.97 2.68 35.94 2 39 C1.67 39 1.34 39 1 39 C0.31742012 25.98922863 -0.15552202 13.02928914 0 0 Z " fill="#352C23" transform="translate(244,177)"/>
<path d="M0 0 C0.33 0 0.66 0 1 0 C0.47841096 8.4893113 -1.00124778 16.70986736 -2.62695312 25.03857422 C-3.50901121 29.67630634 -4.24972388 34.33946129 -5 39 C-5.33 39 -5.66 39 -6 39 C-8.24102165 25.59824675 -5.40078271 12.39898002 0 0 Z " fill="#E5983C" transform="translate(167,187)"/>
<path d="M0 0 C1.98 0.33 3.96 0.66 6 1 C6.495 6.445 6.495 6.445 7 12 C6.19675293 11.86287598 5.39350586 11.72575195 4.56591797 11.58447266 C-5.27437533 10.02824901 -14.93115314 9.57832466 -24.875 9.375 C-26.44923727 9.33669107 -28.02345648 9.29763261 -29.59765625 9.2578125 C-33.39828566 9.16326796 -37.19901182 9.0787471 -41 9 C-41 8.67 -41 8.34 -41 8 C-36.0778287 7.02337871 -31.37061615 6.80835641 -26.375 6.8125 C-25.56119873 6.81185547 -24.74739746 6.81121094 -23.90893555 6.81054688 C-14.54553684 6.8890884 -5.29050635 7.90354403 4 9 C4 6.69 4 4.38 4 2 C2.68 1.34 1.36 0.68 0 0 Z " fill="#3A2917" transform="translate(224,138)"/>
<path d="M0 0 C-0.66 5.28 -1.32 10.56 -2 16 C-2.33 16 -2.66 16 -3 16 C-3 13.69 -3 11.38 -3 9 C-3.99 9.33 -4.98 9.66 -6 10 C-7.71567661 13.50294871 -7.71567661 13.50294871 -9 17 C-9.33 17 -9.66 17 -10 17 C-9.85786703 15.10388566 -9.71113093 13.20811606 -9.5625 11.3125 C-9.48128906 10.25675781 -9.40007812 9.20101562 -9.31640625 8.11328125 C-9.03548319 5.34913703 -8.59843148 2.71054259 -8 0 C-2.25 -1.125 -2.25 -1.125 0 0 Z " fill="#E58625" transform="translate(172,152)"/>
<path d="M0 0 C0.66 0.33 1.32 0.66 2 1 C2.75228559 24.76665215 2.75228559 24.76665215 -3.4375 31.75 C-6 33 -6 33 -8.3125 32.75 C-8.869375 32.5025 -9.42625 32.255 -10 32 C-9.236875 31.649375 -8.47375 31.29875 -7.6875 30.9375 C-4.27850212 28.47985036 -3.15331151 25.92403505 -2 22 C-1.387217 18.20032254 -1.08463972 14.39991973 -0.8125 10.5625 C-0.73064453 9.54478516 -0.64878906 8.52707031 -0.56445312 7.47851562 C-0.36554464 4.98630937 -0.17769513 2.49379327 0 0 Z " fill="#1E2B32" transform="translate(250,258)"/>
<path d="M0 0 C0.66 0 1.32 0 2 0 C10.66682347 19.4893543 10.66682347 19.4893543 8 27 C7.32506659 24.77332235 6.66036956 22.54354023 6 20.3125 C5.62875 19.07113281 5.2575 17.82976562 4.875 16.55078125 C4.12296543 13.4989981 3.80965101 11.11101638 4 8 C3.34 8 2.68 8 2 8 C2.144375 9.14597656 2.28875 10.29195312 2.4375 11.47265625 C2.62522036 13.00257715 2.81270797 14.53252661 3 16.0625 C3.09539062 16.81466797 3.19078125 17.56683594 3.2890625 18.34179688 C3.84571902 22.93421317 4.09829028 27.3742135 4 32 C3.67 32 3.34 32 3 32 C-0.58165209 10.5989937 -0.58165209 10.5989937 0 0 Z " fill="#3F2C16" transform="translate(232,160)"/>
<path d="M0 0 C3.54887104 1.3174317 6.64151254 2.87083653 9.8125 4.9375 C10.60269531 5.44152344 11.39289063 5.94554687 12.20703125 6.46484375 C12.79871094 6.97144531 13.39039063 7.47804688 14 8 C14 8.99 14 9.98 14 11 C8.87863941 11.64017007 5.74077254 10.27881106 1.5703125 7.51171875 C0 6 0 6 -0.5 2.6875 C-0.335 1.800625 -0.17 0.91375 0 0 Z " fill="#2B2C2A" transform="translate(158,276)"/>
<path d="M0 0 C0.36655949 5.49839228 0.36655949 5.49839228 -1.1875 7.625 C-3.48761439 9.36991436 -5.35293693 9.7089374 -8.1875 10.1875 C-9.08855469 10.34605469 -9.98960937 10.50460937 -10.91796875 10.66796875 C-11.60503906 10.77753906 -12.29210937 10.88710938 -13 11 C-13 9.68 -13 8.36 -13 7 C-10.41015625 5.078125 -10.41015625 5.078125 -7.0625 3.25 C-5.40927734 2.32960938 -5.40927734 2.32960938 -3.72265625 1.390625 C-1 0 -1 0 0 0 Z " fill="#222622" transform="translate(243,276)"/>
<path d="M0 0 C2 1 2 1 2.86962891 3.17724609 C3.29381104 4.58611084 3.29381104 4.58611084 3.7265625 6.0234375 C4.0359375 7.044375 4.3453125 8.0653125 4.6640625 9.1171875 C5.13972656 10.72980469 5.13972656 10.72980469 5.625 12.375 C5.94984375 13.44234375 6.2746875 14.5096875 6.609375 15.609375 C9 23.58482143 9 23.58482143 9 27 C5.56977646 24.53727541 3.72527393 23.20658881 3 19 C2.34 18.67 1.68 18.34 1 18 C1.18433594 17.31550781 1.36867187 16.63101563 1.55859375 15.92578125 C2.08413489 12.44232712 1.65769926 9.6536604 1.0625 6.1875 C0.86785156 5.02605469 0.67320312 3.86460937 0.47265625 2.66796875 C0.31667969 1.78753906 0.16070312 0.90710938 0 0 Z " fill="#DD7B1D" transform="translate(159,237)"/>
<path d="M0 0 C1.01058283 3.23537338 0.99200982 5.82985606 0.625 9.1875 C0.53476563 10.06792969 0.44453125 10.94835937 0.3515625 11.85546875 C0 14 0 14 -1 15 C-1.23075082 16.34747084 -1.41153063 17.70377565 -1.5625 19.0625 C-1.706875 20.361875 -1.85125 21.66125 -2 23 C-0.06833984 23.29003906 -0.06833984 23.29003906 1.90234375 23.5859375 C3.58080254 23.84848971 5.25918408 24.11153607 6.9375 24.375 C8.21270508 24.56449219 8.21270508 24.56449219 9.51367188 24.7578125 C10.32255859 24.88671875 11.13144531 25.015625 11.96484375 25.1484375 C12.7137085 25.26364746 13.46257324 25.37885742 14.23413086 25.49755859 C14.81686768 25.66336426 15.39960449 25.82916992 16 26 C16.33 26.66 16.66 27.32 17 28 C9.71189033 28.56062382 3.7551614 26.6912563 -3 24 C-4 23 -4 23 -4.1875 19.96484375 C-3.98061604 15.59011004 -3.13920356 11.76908612 -2 7.5625 C-1.80921875 6.83095703 -1.6184375 6.09941406 -1.421875 5.34570312 C-0.95549597 3.56180334 -0.47881722 1.78060155 0 0 Z " fill="#443418" transform="translate(166,203)"/>
<path d="M0 0 C0.33 0 0.66 0 1 0 C1 1.98 1 3.96 1 6 C0.01 6.33 -0.98 6.66 -2 7 C-2.33820166 8.5823006 -2.67035939 10.16589375 -3 11.75 C-3.185625 12.63171875 -3.37125 13.5134375 -3.5625 14.421875 C-4.11153675 17.22143965 -4.11153675 17.22143965 -4 21 C-3.01 19.02 -2.02 17.04 -1 15 C0 17 0 17 -0.77734375 19.6015625 C-1.16019531 20.59929687 -1.54304687 21.59703125 -1.9375 22.625 C-2.31777344 23.62789062 -2.69804687 24.63078125 -3.08984375 25.6640625 C-3.39019531 26.43492187 -3.69054687 27.20578125 -4 28 C-4.99 27.67 -5.98 27.34 -7 27 C-7.49494362 18.75093964 -6.77183871 8.96203663 -1.953125 2.07421875 C-1.30859375 1.38972656 -0.6640625 0.70523438 0 0 Z " fill="#CF833A" transform="translate(167,146)"/>
<path d="M0 0 C0.87458862 0.09849243 0.87458862 0.09849243 1.7668457 0.19897461 C10.89410271 1.13358513 20.02200433 1.33445629 29.1875 1.5625 C30.82357626 1.60579788 32.45964409 1.6494153 34.09570312 1.69335938 C38.06371468 1.79925341 42.03181481 1.90083523 46 2 C46 2.33 46 2.66 46 3 C30.62863467 4.5208418 15.37866702 4.27021438 0 3 C0 2.01 0 1.02 0 0 Z " fill="#4B3A21" transform="translate(169,292)"/>
<path d="M0 0 C0.33 0 0.66 0 1 0 C2.70718232 5.12154696 2.70718232 5.12154696 3 8 C0.468982 12.07163765 -3.60992619 13.40360952 -8 15 C-8.99 15 -9.98 15 -11 15 C-11 14.34 -11 13.68 -11 13 C-11.99 12.67 -12.98 12.34 -14 12 C-13.67 11.34 -13.34 10.68 -13 10 C-10.78515625 9.4375 -10.78515625 9.4375 -8.0625 9 C-4.07684725 8.4451989 -4.07684725 8.4451989 -1 6 C-0.60235737 4.01178687 -0.26224651 2.01055661 0 0 Z " fill="#C08137" transform="translate(243,276)"/>
<path d="M0 0 C2.7115029 4.06725434 2.57867488 7.1547611 3 12 C3.33 8.7 3.66 5.4 4 2 C4.33 2 4.66 2 5 2 C5.42308473 5.74744955 5.80869734 9.4978364 6.1875 13.25 C6.30802734 14.31347656 6.42855469 15.37695312 6.55273438 16.47265625 C6.70258789 18.00986328 6.70258789 18.00986328 6.85546875 19.578125 C6.95496826 20.52075195 7.05446777 21.46337891 7.15698242 22.43457031 C6.96823228 25.51915268 6.04711747 26.74654793 4 29 C2.02701352 19.33360714 0.49059462 9.87956066 0 0 Z " fill="#CB8C40" transform="translate(227,158)"/>
<path d="M0 0 C2.89858775 2.89858775 2.97872202 6.28675076 3.625 10.1875 C3.7590625 10.93064453 3.893125 11.67378906 4.03125 12.43945312 C4.81927903 17.02690783 5.1355795 21.34715801 5 26 C4.01 26 3.02 26 2 26 C1.46845258 24.39935157 0.95011647 22.79431126 0.4375 21.1875 C0.14746094 20.29417969 -0.14257812 19.40085938 -0.44140625 18.48046875 C-1 16 -1 16 0 13 C0.66 13.33 1.32 13.66 2 14 C1.855625 13.40832031 1.71125 12.81664062 1.5625 12.20703125 C0.59177306 8.07470059 -0.27593702 4.2770238 0 0 Z " fill="#DB8736" transform="translate(237,151)"/>
<path d="M0 0 C0.99 0.33 1.98 0.66 3 1 C4.60503782 1.13616589 6.21442532 1.22421784 7.82421875 1.28125 C9.24444336 1.33732422 9.24444336 1.33732422 10.69335938 1.39453125 C11.68142578 1.42933594 12.66949219 1.46414063 13.6875 1.5 C20.18436511 1.7334203 26.56070813 2.08337482 33 3 C33 3.33 33 3.66 33 4 C28.6949909 4.02483806 24.39002049 4.04292512 20.08496094 4.05493164 C18.62238843 4.05994045 17.15982089 4.06674938 15.69726562 4.07543945 C13.58722709 4.08765698 11.47725513 4.09326295 9.3671875 4.09765625 C8.09987793 4.10289307 6.83256836 4.10812988 5.52685547 4.11352539 C2.252804 4.00813747 -0.78889152 3.62450226 -4 3 C-2.68 2.67 -1.36 2.34 0 2 C0 1.34 0 0.68 0 0 Z " fill="#BD9154" transform="translate(183,283)"/>
<path d="M0 0 C5.78408559 -0.0494009 11.56804864 -0.08572 17.35229492 -0.10986328 C19.32041564 -0.11992707 21.28852138 -0.13357934 23.2565918 -0.15087891 C26.08385918 -0.17511059 28.91092905 -0.18647923 31.73828125 -0.1953125 C32.61962234 -0.20563507 33.50096344 -0.21595764 34.40901184 -0.22659302 C35.22963608 -0.22674408 36.05026031 -0.22689514 36.89575195 -0.22705078 C37.61745071 -0.231492 38.33914948 -0.23593323 39.0827179 -0.24050903 C41 0 41 0 44 2 C44 2.99 44 3.98 44 5 C43.195625 4.690625 42.39125 4.38125 41.5625 4.0625 C32.67700547 1.41244023 23.13545497 1.71402797 13.9375 1.4375 C12.58136984 1.39420372 11.22524989 1.35058634 9.86914062 1.30664062 C6.57951329 1.2012789 3.28981941 1.09915048 0 1 C0 0.67 0 0.34 0 0 Z " fill="#563A21" transform="translate(188,129)"/>
<path d="M0 0 C0.99 0.33 1.98 0.66 3 1 C2.34 2.65 1.68 4.3 1 6 C2.65 5.67 4.3 5.34 6 5 C6 5.99 6 6.98 6 8 C3.69 7.67 1.38 7.34 -1 7 C-1.12375 7.7425 -1.2475 8.485 -1.375 9.25 C-2 12 -2 12 -4 16 C-7.96 16 -11.92 16 -16 16 C-16 15.67 -16 15.34 -16 15 C-15.38511719 14.89042969 -14.77023438 14.78085937 -14.13671875 14.66796875 C-13.32847656 14.50941406 -12.52023438 14.35085938 -11.6875 14.1875 C-10.88699219 14.03667969 -10.08648437 13.88585937 -9.26171875 13.73046875 C-6.71028827 12.90643162 -5.60167031 12.13556041 -4 10 C-3.74951364 6.87450983 -3.74951364 6.87450983 -4 4 C-3.01 3.67 -2.02 3.34 -1 3 C-0.67 2.01 -0.34 1.02 0 0 Z " fill="#E29037" transform="translate(224,270)"/>
<path d="M0 0 C0.33 0 0.66 0 1 0 C1 4.62 1 9.24 1 14 C2.98 14 4.96 14 7 14 C7 14.66 7 15.32 7 16 C7.99 16.33 8.98 16.66 10 17 C9.67 17.99 9.34 18.98 9 20 C7.02 18.35 5.04 16.7 3 15 C3 18.3 3 21.6 3 25 C2.67 25 2.34 25 2 25 C2 22.03 2 19.06 2 16 C1.34 16 0.68 16 0 16 C0 19.96 0 23.92 0 28 C-0.33 28 -0.66 28 -1 28 C-1.02727678 25.02076997 -1.04697128 22.04179621 -1.0625 19.0625 C-1.07087891 18.23169922 -1.07925781 17.40089844 -1.08789062 16.54492188 C-1.10966956 10.94773559 -0.71159268 5.55266418 0 0 Z " fill="#B87836" transform="translate(153,239)"/>
<path d="M0 0 C9.91194969 7.32075472 9.91194969 7.32075472 14 11 C14 11.66 14 12.32 14 13 C8.85087905 12.51726991 3.66411915 9.66411915 0 6 C-0.04080783 4.00041636 -0.04254356 1.99954746 0 0 Z " fill="#D2D6D9" transform="translate(158,259)"/>
<path d="M0 0 C1 4 1 4 0.0625 6.5 C-2.67762068 9.82135841 -5.88206656 11.72144808 -10 13 C-10.99 12.67 -11.98 12.34 -13 12 C-8.71 8.04 -4.42 4.08 0 0 Z " fill="#D4D6D4" transform="translate(242,259)"/>
<path d="M0 0 C1.134375 0.020625 2.26875 0.04125 3.4375 0.0625 C3.4375 1.7125 3.4375 3.3625 3.4375 5.0625 C-3.3125 9.0625 -3.3125 9.0625 -5.5625 9.0625 C-4.56445312 0.08007812 -4.56445312 0.08007812 0 0 Z " fill="#CA8033" transform="translate(251.5625,205.9375)"/>
<path d="M0 0 C0.33 0 0.66 0 1 0 C2.02250405 6.69860922 2.11756273 13.2315198 2.0625 20 C2.05798828 21.06089844 2.05347656 22.12179688 2.04882812 23.21484375 C2.03713843 25.80995598 2.02075276 28.40494709 2 31 C2.66 31.33 3.32 31.66 4 32 C3.01 32 2.02 32 1 32 C-0.33583899 27.15758367 -1.25328119 23.06562383 -1 18 C-0.34 18 0.32 18 1 18 C0.835 16.700625 0.67 15.40125 0.5 14.0625 C-0.0315638 9.34580713 -0.07529541 4.74361065 0 0 Z " fill="#3F2E18" transform="translate(241,190)"/>
<path d="M0 0 C0.66 0.66 1.32 1.32 2 2 C4.43252661 2.46162427 4.43252661 2.46162427 7.125 2.625 C8.03507812 2.69976562 8.94515625 2.77453125 9.8828125 2.8515625 C10.93082031 2.92503906 10.93082031 2.92503906 12 3 C10.49609375 4.54296875 10.49609375 4.54296875 8 6 C5.21463979 5.94435137 2.78704196 5.74216797 0.0625 5.3125 C-0.64068359 5.22033203 -1.34386719 5.12816406 -2.06835938 5.03320312 C-5.96713386 4.48145528 -9.42098388 3.64592718 -13 2 C-9.72814447 0.92689142 -7.57052408 1.10736898 -4.25 1.9375 C-3.45078125 2.13214844 -2.6515625 2.32679688 -1.828125 2.52734375 C-0.92320312 2.76130859 -0.92320312 2.76130859 0 3 C0 2.01 0 1.02 0 0 Z " fill="#C47E34" transform="translate(176,288)"/>
<path d="M0 0 C2.875 -0.125 2.875 -0.125 6 0 C8 2 8 2 8.125 5.125 C8.08375 6.07375 8.0425 7.0225 8 8 C4.62537285 7.45276317 2.91765 6.9451 0 5 C-0.1875 2.375 -0.1875 2.375 0 0 Z " fill="#DF8D33" transform="translate(146,206)"/>
<path d="M0 0 C0.33 0 0.66 0 1 0 C1.09688221 5.44693314 1.12862175 10.63904667 0 16 C-0.66 15.34 -1.32 14.68 -2 14 C-3.98821313 13.60235737 -5.98944339 13.26224651 -8 13 C-7 10 -7 10 -4.5625 8.75 C-1.06785323 6.36341196 -0.83729617 4.03424517 0 0 Z " fill="#F08921" transform="translate(246,262)"/>
<path d="M0 0 C7.42857143 -0.28571429 7.42857143 -0.28571429 11 2 C11 2.99 11 3.98 11 5 C12.32 4.67 13.64 4.34 15 4 C15.33 4.99 15.66 5.98 16 7 C10.30860098 5.90301833 5.25432063 4.45946923 0 2 C0 1.34 0 0.68 0 0 Z " fill="#2B333A" transform="translate(158,290)"/>
<path d="M0 0 C1.32 0 2.64 0 4 0 C4 0.66 4 1.32 4 2 C5.65 2.33 7.3 2.66 9 3 C9.33 4.65 9.66 6.3 10 8 C9.05125 7.67 8.1025 7.34 7.125 7 C4.22937548 5.89840809 4.22937548 5.89840809 2 6 C1.67 6.99 1.34 7.98 1 9 C-0.4783226 6.04335481 -0.06032783 3.25770263 0 0 Z " fill="#E88C23" transform="translate(155,270)"/>
<path d="M0 0 C4.28359673 1.8855148 6.15103592 4.35965701 9 8 C7.02 7.34 5.04 6.68 3 6 C3 8.97 3 11.94 3 15 C0 12 0 12 -0.29296875 9.08203125 C-0.25816406 8.00308594 -0.22335938 6.92414063 -0.1875 5.8125 C-0.16042969 4.72582031 -0.13335937 3.63914062 -0.10546875 2.51953125 C-0.07066406 1.68808594 -0.03585938 0.85664063 0 0 Z " fill="#2B281C" transform="translate(156,254)"/>
<path d="M0 0 C0.33 0 0.66 0 1 0 C1.49076532 7.6886567 -1.05607302 13.97986644 -4 21 C-4.66 21 -5.32 21 -6 21 C-4.55613874 13.78069368 -2.42211826 6.94889267 0 0 Z " fill="#DE7D1E" transform="translate(240,239)"/>
<path d="M0 0 C0.33 0 0.66 0 1 0 C1.36613314 2.83223655 1.71813541 5.66510183 2.0625 8.5 C2.16626953 9.29148438 2.27003906 10.08296875 2.37695312 10.8984375 C3.00356076 16.17058446 2.8596928 20.75767747 2 26 C1.67 26 1.34 26 1 26 C-1.57446809 8.85106383 -1.57446809 8.85106383 0 0 Z " fill="#24323E" transform="translate(244,159)"/>
<path d="M0 0 C3.37535717 4.50047623 3.24570873 6.52358552 2.6875 11.75 C2.62626953 12.44738281 2.56503906 13.14476562 2.50195312 13.86328125 C2.34937092 15.57689681 2.17666411 17.2886995 2 19 C1.01 18.67 0.02 18.34 -1 18 C-0.505 9.09 -0.505 9.09 0 0 Z " fill="#373F43" transform="translate(153,183)"/>
<path d="M0 0 C0.33 0 0.66 0 1 0 C1.22742222 6.14040005 0.86360591 12.09858129 -1 18 C-1.66 18.33 -2.32 18.66 -3 19 C-3.23577013 12.60800977 -2.89437402 7.12885711 -1 1 C-0.67 0.67 -0.34 0.34 0 0 Z " fill="#222C2D" transform="translate(157,169)"/>
<path d="M0 0 C4.67479675 1.4762516 4.67479675 1.4762516 6.11328125 3.79296875 C7.03736066 6.09299019 7.50078299 8.10616992 7.8125 10.5625 C7.97685547 11.70912109 7.97685547 11.70912109 8.14453125 12.87890625 C8 15 8 15 6.51171875 16.77734375 C6.01285156 17.18082031 5.51398438 17.58429688 5 18 C4.89042969 17.09636719 4.78085938 16.19273437 4.66796875 15.26171875 C4.50941406 14.08222656 4.35085937 12.90273437 4.1875 11.6875 C3.96126953 9.92986328 3.96126953 9.92986328 3.73046875 8.13671875 C2.98209125 4.9230977 2.42788656 4.05538889 0 2 C0 1.34 0 0.68 0 0 Z " fill="#252E38" transform="translate(228,127)"/>
<path d="M0 0 C1.98 0 3.96 0 6 0 C6 0.66 6 1.32 6 2 C8.64 2 11.28 2 14 2 C14 2.66 14 3.32 14 4 C8.72 4 3.44 4 -2 4 C-1.34 2.68 -0.68 1.36 0 0 Z " fill="#342921" transform="translate(179,286)"/>
<path d="M0 0 C0.66 0 1.32 0 2 0 C1.48517081 5.852795 0.54642808 11.3297637 -1 17 C-1.66 17 -2.32 17 -3 17 C-2.22095672 5.47835991 -2.22095672 5.47835991 0 0 Z " fill="#22282E" transform="translate(166,166)"/>
<path d="M0 0 C0.33 0 0.66 0 1 0 C1.8320582 5.72040011 2.12036664 11.22240116 2 17 C0 15 0 15 -0.1953125 12.6171875 C-0.13020833 10.078125 -0.06510417 7.5390625 0 5 C-4.95 4.67 -9.9 4.34 -15 4 C-15 3.67 -15 3.34 -15 3 C-10.38 3 -5.76 3 -1 3 C-0.67 2.01 -0.34 1.02 0 0 Z " fill="#A67946" transform="translate(230,134)"/>
<path d="M0 0 C0.66 0 1.32 0 2 0 C2.27733386 8.5511272 1.52016163 16.58481953 0 25 C-0.33 25 -0.66 25 -1 25 C-1.23668569 17.96517526 -0.7879537 11.8165735 1 5 C0.01 5.33 -0.98 5.66 -2 6 C-1.34 4.02 -0.68 2.04 0 0 Z " fill="#3A2611" transform="translate(167,161)"/>
<path d="M0 0 C6.04433574 1.35997554 9.63494136 4.85651794 14 9 C13.01 9.495 13.01 9.495 12 10 C11.67 10.99 11.34 11.98 11 13 C10.93941406 12.42636719 10.87882813 11.85273438 10.81640625 11.26171875 C9.65308733 8.0389357 7.6523749 6.84770158 4.9375 4.8125 C3.27876095 3.55855842 1.62918253 2.29211029 0 1 C0 0.67 0 0.34 0 0 Z " fill="#38352D" transform="translate(161,261)"/>
<path d="M0 0 C0.33 0 0.66 0 1 0 C1.33 1.98 1.66 3.96 2 6 C4.31 6.33 6.62 6.66 9 7 C8.34 7.66 7.68 8.32 7 9 C6.54188325 10.97235333 6.54188325 10.97235333 6.375 13.125 C6.189375 15.043125 6.189375 15.043125 6 17 C5.67 17 5.34 17 5 17 C4.67 14.36 4.34 11.72 4 9 C2.35 9.33 0.7 9.66 -1 10 C-1.125 3.375 -1.125 3.375 0 0 Z " fill="#393C41" transform="translate(244,209)"/>
<path d="M0 0 C-0.33 2.64 -0.66 5.28 -1 8 C-2.98 8 -4.96 8 -7 8 C-7.33 6.02 -7.66 4.04 -8 2 C-6.68 2.33 -5.36 2.66 -4 3 C-4 2.34 -4 1.68 -4 1 C-2 0 -2 0 0 0 Z " fill="#242928" transform="translate(159,212)"/>
<path d="M0 0 C0.33 0 0.66 0 1 0 C1.21755666 5.4389165 1.10428384 9.87080814 -1 15 C-1.66 15 -2.32 15 -3 15 C-3.37379162 5.46831364 -3.37379162 5.46831364 -1 1 C-0.67 0.67 -0.34 0.34 0 0 Z " fill="#1F2B32" transform="translate(163,187)"/>
<path d="M0 0 C0.99 0 1.98 0 3 0 C2.03644647 11.52164009 2.03644647 11.52164009 1 17 C-2.06813137 12.39780294 -1.25317679 7.77223751 -0.5 2.5 C-0.335 1.675 -0.17 0.85 0 0 Z " fill="#E0913B" transform="translate(170,162)"/>
<path d="M0 0 C2.97 0.495 2.97 0.495 6 1 C6.33 4.63 6.66 8.26 7 12 C2.38 11.34 -2.24 10.68 -7 10 C-7 9.67 -7 9.34 -7 9 C-3.37 9 0.26 9 4 9 C4 6.69 4 4.38 4 2 C2.68 1.34 1.36 0.68 0 0 Z " fill="#41341F" transform="translate(224,138)"/>
<path d="M0 0 C2.12508244 3.18762365 2.5020163 5.26512223 3 9 C3.99 9 4.98 9 6 9 C6 9.99 6 10.98 6 12 C5.01 12 4.02 12 3 12 C3 13.98 3 15.96 3 18 C2.34 18 1.68 18 1 18 C0.67 12.06 0.34 6.12 0 0 Z " fill="#33251A" transform="translate(231,134)"/>
<path d="M0 0 C1.4540625 0.0309375 1.4540625 0.0309375 2.9375 0.0625 C1.9475 0.5575 1.9475 0.5575 0.9375 1.0625 C0.9375 2.0525 0.9375 3.0425 0.9375 4.0625 C-0.0525 4.5575 -0.0525 4.5575 -1.0625 5.0625 C-1.52773063 6.95783342 -1.52773063 6.95783342 -1.6875 9.125 C-1.81125 10.424375 -1.935 11.72375 -2.0625 13.0625 C-3.0525 12.7325 -4.0425 12.4025 -5.0625 12.0625 C-4.92212479 10.24956911 -4.77505111 8.4371557 -4.625 6.625 C-4.54378906 5.61566406 -4.46257812 4.60632813 -4.37890625 3.56640625 C-3.91554584 -0.10043357 -3.78745586 0.07729502 0 0 Z " fill="#EF9632" transform="translate(175.0625,148.9375)"/>
<path d="M0 0 C3.59391114 1.33488128 6.75490696 2.96022723 10 5 C9.01 5.495 9.01 5.495 8 6 C5.375 5.0625 5.375 5.0625 3 4 C3 4.99 3 5.98 3 7 C5.475 7.99 5.475 7.99 8 9 C7.01 9.495 7.01 9.495 6 10 C3 8.375 3 8.375 0 6 C-0.375 2.75 -0.375 2.75 0 0 Z " fill="#362915" transform="translate(158,276)"/>
<path d="M0 0 C0.33 0 0.66 0 1 0 C1.05398987 2.27057377 1.09278742 4.54151288 1.125 6.8125 C1.14820313 8.07707031 1.17140625 9.34164063 1.1953125 10.64453125 C1 14 1 14 -1 17 C-2.00802609 12.0858728 -2.59062188 7.00527017 -2 2 C-1.34 1.34 -0.68 0.68 0 0 Z " fill="#2E353C" transform="translate(150,259)"/>
<path d="M0 0 C0.66 0.33 1.32 0.66 2 1 C3.10850248 5.66534956 3.34383934 10.37122006 2 15 C1.34 15 0.68 15 0 15 C0 11.37 0 7.74 0 4 C-1.32 4 -2.64 4 -4 4 C-4 3.34 -4 2.68 -4 2 C-2.68 2 -1.36 2 0 2 C0 1.34 0 0.68 0 0 Z " fill="#252A2D" transform="translate(247,217)"/>
<path d="M0 0 C0.33 0 0.66 0 1 0 C1 3.63 1 7.26 1 11 C3.64 11 6.28 11 9 11 C9.33 11.66 9.66 12.32 10 13 C6.37 13 2.74 13 -1 13 C-0.67 8.71 -0.34 4.42 0 0 Z " fill="#373F43" transform="translate(248,192)"/>
<path d="M0 0 C2.125 1.375 2.125 1.375 4 4 C3.84544387 7.47199315 3.17912051 10.73062039 2 14 C1.01 14.495 1.01 14.495 0 15 C-0.84888195 9.62374766 -1.0024305 5.34629602 0 0 Z " fill="#BD7737" transform="translate(159,171)"/>
<path d="M0 0 C1.76715266 3.53430532 2.3116233 4.79880079 2.375 8.5 C2.40335938 9.2528125 2.43171875 10.005625 2.4609375 10.78125 C2 13 2 13 -2 17 C-1.34 11.39 -0.68 5.78 0 0 Z " fill="#3B4242" transform="translate(157,155)"/>
<path d="M0 0 C0.33 0 0.66 0 1 0 C1 1.98 1 3.96 1 6 C1.66 6 2.32 6 3 6 C3 8.31 3 10.62 3 13 C2.01 13.33 1.02 13.66 0 14 C-1.86987216 10.26025568 -1.30641834 5.53209172 -0.5 1.5 C-0.335 1.005 -0.17 0.51 0 0 Z " fill="#242829" transform="translate(151,269)"/>
<path d="M0 0 C3.10515402 2.07010268 3.57196269 2.76311542 5 6 C5.37125 6.680625 5.7425 7.36125 6.125 8.0625 C7 10 7 10 7 13 C3.56977646 10.53727541 1.72527393 9.20658881 1 5 C0.34 4.67 -0.32 4.34 -1 4 C-0.67 2.68 -0.34 1.36 0 0 Z " fill="#E48429" transform="translate(161,251)"/>
<path d="M0 0 C1.8125 0.5 1.8125 0.5 4 2 C5.85946691 5.60223088 7 8.93833348 7 13 C6.01 13.33 5.02 13.66 4 14 C3.855625 12.9275 3.71125 11.855 3.5625 10.75 C3.16250558 8.08337051 2.72408076 5.58600271 2 3 C1.34 3 0.68 3 0 3 C0 2.01 0 1.02 0 0 Z " fill="#2F383F" transform="translate(237,145)"/>
<path d="M0 0 C3.96 0 7.92 0 12 0 C11 3 11 3 8.625 4.1875 C6 5 6 5 3 5 C3 4.34 3 3.68 3 3 C2.01 2.67 1.02 2.34 0 2 C0 1.34 0 0.68 0 0 Z " fill="#D5812A" transform="translate(229,286)"/>
<path d="M0 0 C0.33 0.66 0.66 1.32 1 2 C1.99 1.67 2.98 1.34 4 1 C4 5.95 4 10.9 4 16 C1.37722658 10.75445315 -0.35861008 5.91706636 0 0 Z " fill="#372A1D" transform="translate(236,192)"/>
<path d="M0 0 C2 1.375 2 1.375 4 4 C4.35791096 7.3580469 4.23115823 10.63536357 4 14 C3.01 14.495 3.01 14.495 2 15 C1.27840576 16.64363134 0.60648579 18.31050386 0 20 C-1.57156655 16.8568669 -0.11705576 14.634536 0.9375 11.375 C1.31777344 10.18648437 1.69804687 8.99796875 2.08984375 7.7734375 C2.39019531 6.85820312 2.69054687 5.94296875 3 5 C2.01 4.67 1.02 4.34 0 4 C0 2.68 0 1.36 0 0 Z " fill="#E58727" transform="translate(241,219)"/>
<path d="M0 0 C-0.33 0.99 -0.66 1.98 -1 3 C-4.3 3.33 -7.6 3.66 -11 4 C-11 3.01 -11 2.02 -11 1 C-7.26562152 0.12132271 -3.83225427 -0.08912219 0 0 Z " fill="#222F31" transform="translate(185,126)"/>
<path d="M0 0 C0.66 0 1.32 0 2 0 C2.05391993 1.79133978 2.09275571 3.58313899 2.125 5.375 C2.14820313 6.37273437 2.17140625 7.37046875 2.1953125 8.3984375 C2 11 2 11 0 13 C0 10.36 0 7.72 0 5 C-0.66 5 -1.32 5 -2 5 C-1.125 1.125 -1.125 1.125 0 0 Z " fill="#28251B" transform="translate(243,254)"/>
<path d="M0 0 C0.33 0 0.66 0 1 0 C1.98248524 4.0527516 2.08159574 7.83861737 2 12 C1.01 12 0.02 12 -1 12 C-1.33 9.69 -1.66 7.38 -2 5 C-1.67 5 -1.34 5 -1 5 C-0.67 3.35 -0.34 1.7 0 0 Z " fill="#D58940" transform="translate(240,165)"/>
<path d="M0 0 C0.33 0.66 0.66 1.32 1 2 C1.99 2.66 2.98 3.32 4 4 C0.32589215 5.17571451 -3.16929183 5.07366746 -7 5 C-7 4.67 -7 4.34 -7 4 C-9.31 3.67 -11.62 3.34 -14 3 C-14 2.67 -14 2.34 -14 2 C-13.07316406 1.93941406 -12.14632812 1.87882812 -11.19140625 1.81640625 C-9.39509766 1.69072266 -9.39509766 1.69072266 -7.5625 1.5625 C-5.77005859 1.44068359 -5.77005859 1.44068359 -3.94140625 1.31640625 C-1.11429756 1.32343886 -1.11429756 1.32343886 0 0 Z " fill="#B37834" transform="translate(224,289)"/>
<path d="M0 0 C0.33 0 0.66 0 1 0 C1.66 2.64 2.32 5.28 3 8 C3.66 7.67 4.32 7.34 5 7 C5 10.3 5 13.6 5 17 C0.8935443 11.52472574 -0.33202185 6.80644786 0 0 Z " fill="#D08B3D" transform="translate(153,269)"/>
<path d="M0 0 C0.33 0.99 0.66 1.98 1 3 C1.66 3 2.32 3 3 3 C3.33 4.32 3.66 5.64 4 7 C5.65 7 7.3 7 9 7 C9 8.32 9 9.64 9 11 C2.25 7.25 2.25 7.25 0 5 C-0.125 2.375 -0.125 2.375 0 0 Z " fill="#2B3639" transform="translate(142,207)"/>
<path d="M0 0 C2.94956528 1.36944102 5.52468811 2.87830409 8 5 C8 5.66 8 6.32 8 7 C4.17902761 6.46930939 1.93828597 5.50298434 -1 3 C-0.67 2.01 -0.34 1.02 0 0 Z " fill="#C6CCCD" transform="translate(164,265)"/>
<path d="M0 0 C0.66 0.99 1.32 1.98 2 3 C-0.31 4.98 -2.62 6.96 -5 9 C-5.66 8.34 -6.32 7.68 -7 7 C-4.69 4.69 -2.38 2.38 0 0 Z " fill="#3F382D" transform="translate(240,257)"/>
<path d="M0 0 C0.33 0 0.66 0 1 0 C1 2.31 1 4.62 1 7 C-5.4 10.07692308 -5.4 10.07692308 -8.4375 9.6875 C-8.953125 9.460625 -9.46875 9.23375 -10 9 C-8.3603125 8.443125 -8.3603125 8.443125 -6.6875 7.875 C-3.45411511 6.5201201 -3.01423545 6.02341962 -1.0625 2.8125 C-0.711875 1.884375 -0.36125 0.95625 0 0 Z " fill="#2A2724" transform="translate(236,220)"/>
<path d="M0 0 C0.33 0 0.66 0 1 0 C1.1799928 5.21979128 0.97094808 9.07262981 -1 14 C-1.66 13.34 -2.32 12.68 -3 12 C-2.5390625 9.1796875 -2.5390625 9.1796875 -1.625 5.875 C-1.32851562 4.77929688 -1.03203125 3.68359375 -0.7265625 2.5546875 C-0.48679688 1.71164063 -0.24703125 0.86859375 0 0 Z " fill="#CC751C" transform="translate(219,239)"/>
<path d="M0 0 C2 2 2 2 2.1875 5.3125 C2.03317813 8.34749675 1.71340141 11.05721919 1 14 C0.67 14 0.34 14 0 14 C-0.19393875 11.85473901 -0.37998676 9.70876323 -0.5625 7.5625 C-0.71912109 5.77005859 -0.71912109 5.77005859 -0.87890625 3.94140625 C-0.91886719 2.97074219 -0.95882812 2.00007812 -1 1 C-0.67 0.67 -0.34 0.34 0 0 Z " fill="#F0A43F" transform="translate(239,212)"/>
<path d="M0 0 C0.66 0 1.32 0 2 0 C1.34 1.98 0.68 3.96 0 6 C-3.96 6 -7.92 6 -12 6 C-12 5.67 -12 5.34 -12 5 C-11.07767578 4.83564453 -11.07767578 4.83564453 -10.13671875 4.66796875 C-9.32847656 4.50941406 -8.52023438 4.35085938 -7.6875 4.1875 C-6.88699219 4.03667969 -6.08648437 3.88585937 -5.26171875 3.73046875 C-2.74569185 2.91786593 -1.77405234 1.89891233 0 0 Z " fill="#D79B4D" transform="translate(220,280)"/>
<path d="M0 0 C0.35915493 5.38732394 0.35915493 5.38732394 -1.0625 7.8125 C-3.90927247 9.55729603 -6.71846765 9.69042148 -10 10 C-9.34 9.34 -8.68 8.68 -8 8 C-6.68 8 -5.36 8 -4 8 C-4 7.01 -4 6.02 -4 5 C-3.01 5 -2.02 5 -1 5 C-1.83333333 2.83333333 -1.83333333 2.83333333 -4 2 C-1 0 -1 0 0 0 Z " fill="#332815" transform="translate(243,276)"/>
<path d="M0 0 C0.66 1.32 1.32 2.64 2 4 C0.375 6 0.375 6 -2 8 C-5.25 8.25 -5.25 8.25 -8 8 C-5.702779 6.25728062 -3.40133271 4.60088848 -1 3 C-0.67 2.01 -0.34 1.02 0 0 Z " fill="#3D423B" transform="translate(242,263)"/>
<path d="M0 0 C1.32 0.33 2.64 0.66 4 1 C3.67 4.96 3.34 8.92 3 13 C2.67 13 2.34 13 2 13 C1.67 10.69 1.34 8.38 1 6 C0.67 6 0.34 6 0 6 C0 4.02 0 2.04 0 0 Z " fill="#3B3834" transform="translate(151,218)"/>
<path d="M0 0 C0.33 0 0.66 0 1 0 C1.21192221 5.19209404 0.5912689 9.126739 -1 14 C-3 12 -3 12 -3.25 9.625 C-2.98957796 6.8905686 -2.33956818 5.36394385 -1 3 C-0.67 2.01 -0.34 1.02 0 0 Z " fill="#D38D3C" transform="translate(247,269)"/>
<path d="M0 0 C1.32 0.33 2.64 0.66 4 1 C1.12835434 3.70272533 -0.30991841 4.94791837 -4.3125 5.25 C-5.199375 5.1675 -6.08625 5.085 -7 5 C-7 4.34 -7 3.68 -7 3 C-3.535 2.505 -3.535 2.505 0 2 C0 1.34 0 0.68 0 0 Z " fill="#232A2E" transform="translate(230,292)"/>
<path d="M0 0 C0.99 0.33 1.98 0.66 3 1 C3 2.32 3 3.64 3 5 C0.03 4.505 0.03 4.505 -3 4 C-3.33 3.01 -3.66 2.02 -4 1 C-3.01 1.33 -2.02 1.66 -1 2 C-0.67 1.34 -0.34 0.68 0 0 Z " fill="#2D2819" transform="translate(173,271)"/>
<path d="M0 0 C0.66 0.33 1.32 0.66 2 1 C1.75 2.875 1.75 2.875 1 5 C-0.875 6.3125 -0.875 6.3125 -3 7 C-3.99 6.67 -4.98 6.34 -6 6 C-4.02 4.02 -2.04 2.04 0 0 Z " fill="#CECBCA" transform="translate(235,265)"/>
<path d="M0 0 C0.33 0 0.66 0 1 0 C1.33 1.65 1.66 3.3 2 5 C2.33 5 2.66 5 3 5 C3.1875 7.875 3.1875 7.875 3 11 C2.01 11.66 1.02 12.32 0 13 C0 8.71 0 4.42 0 0 Z " fill="#202325" transform="translate(244,177)"/>
<path d="M0 0 C0.99 0.33 1.98 0.66 3 1 C3.1875 3.875 3.1875 3.875 3 7 C2.01 7.66 1.02 8.32 0 9 C0 6.03 0 3.06 0 0 Z " fill="#1E252A" transform="translate(148,252)"/>
<path d="M0 0 C0.33 0 0.66 0 1 0 C1 1.98 1 3.96 1 6 C0.34 6 -0.32 6 -1 6 C-1.33 8.97 -1.66 11.94 -2 15 C-2.95495726 11.18017094 -3.00790152 9.99126785 -2.125 6.375 C-1.94195312 5.59898437 -1.75890625 4.82296875 -1.5703125 4.0234375 C-1 2 -1 2 0 0 Z " fill="#342914" transform="translate(171,183)"/>
<path d="M0 0 C1.3609623 2.7219246 0.70366248 4.1831957 0.0625 7.125 C-0.13214844 8.03507813 -0.32679688 8.94515625 -0.52734375 9.8828125 C-0.68332031 10.58148438 -0.83929688 11.28015625 -1 12 C-3 9 -3 9 -2.75 6 C-2 3 -2 3 0 0 Z " fill="#364140" transform="translate(169,128)"/>
<path d="M0 0 C0.33 0.66 0.66 1.32 1 2 C0.67 2.99 0.34 3.98 0 5 C-2.31 5 -4.62 5 -7 5 C-4.87219421 2.65941363 -2.88437779 1.29299694 0 0 Z " fill="#34291E" transform="translate(254,211)"/>
<path d="M0 0 C0.66 0 1.32 0 2 0 C4 3 4 3 3.625 5.1875 C3.41875 5.785625 3.2125 6.38375 3 7 C1.68 5.68 0.36 4.36 -1 3 C-0.67 2.01 -0.34 1.02 0 0 Z " fill="#313A40" transform="translate(152,282)"/>
<path d="M0 0 C2.97 0.495 2.97 0.495 6 1 C6.33 2.65 6.66 4.3 7 6 C1.125 2.25 1.125 2.25 0 0 Z " fill="#F59422" transform="translate(158,272)"/>
<path d="M0 0 C0.33 0 0.66 0 1 0 C1.33 3.63 1.66 7.26 2 11 C1.01 10.67 0.02 10.34 -1 10 C-0.67 6.7 -0.34 3.4 0 0 Z " fill="#475355" transform="translate(244,159)"/>
<path d="M0 0 C0.33 0 0.66 0 1 0 C1.66 2.64 2.32 5.28 3 8 C1.02 8.99 1.02 8.99 -1 10 C-0.67 6.7 -0.34 3.4 0 0 Z " fill="#52361A" transform="translate(169,142)"/>
<path d="M0 0 C2.4375 0.8125 2.4375 0.8125 5 2 C5.33 2.99 5.66 3.98 6 5 C5.01 6.485 5.01 6.485 4 8 C2.3372974 5.32521756 1.00016187 3.0004856 0 0 Z " fill="#31353C" transform="translate(228,127)"/>
<path d="M0 0 C0.99 0.495 0.99 0.495 2 1 C2.40729228 3.32156597 2.74438677 5.6568787 3 8 C2.01 8 1.02 8 0 8 C0 5.36 0 2.72 0 0 Z " fill="#E5963D" transform="translate(234,193)"/>
<path d="M0 0 C0.66 0 1.32 0 2 0 C2 2.64 2 5.28 2 8 C1.01 7.67 0.02 7.34 -1 7 C-1.04254356 5.00045254 -1.04080783 2.99958364 -1 1 C-0.67 0.67 -0.34 0.34 0 0 Z " fill="#5D4015" transform="translate(174,153)"/>
<path d="M0 0 C0.66 0 1.32 0 2 0 C1.67 3.96 1.34 7.92 1 12 C0.67 12 0.34 12 0 12 C-0.19401633 10.18818595 -0.38004375 8.37551468 -0.5625 6.5625 C-0.66691406 5.55316406 -0.77132812 4.54382813 -0.87890625 3.50390625 C-0.91886719 2.67761719 -0.95882812 1.85132813 -1 1 C-0.67 0.67 -0.34 0.34 0 0 Z " fill="#212A26" transform="translate(159,154)"/>
<path d="M0 0 C0.33 0 0.66 0 1 0 C0.67 3.96 0.34 7.92 0 12 C-0.33 12 -0.66 12 -1 12 C-1.22162329 10.37675914 -1.42689803 8.751279 -1.625 7.125 C-1.74101562 6.22007812 -1.85703125 5.31515625 -1.9765625 4.3828125 C-1.98429688 3.59648437 -1.99203125 2.81015625 -2 2 C-1.34 1.34 -0.68 0.68 0 0 Z " fill="#EDA041" transform="translate(162,214)"/>
<path d="M0 0 C1.32 0 2.64 0 4 0 C4 1.32 4 2.64 4 4 C2.68 4.33 1.36 4.66 0 5 C0 3.35 0 1.7 0 0 Z " fill="#F48717" transform="translate(248,208)"/>
<path d="M0 0 C0.93423645 3.01031744 1.04449911 3.86650268 0 7 C-0.66 7 -1.32 7 -2 7 C-2.33 5.02 -2.66 3.04 -3 1 C-2.01 0.67 -1.02 0.34 0 0 Z " fill="#BC7C35" transform="translate(242,176)"/>
</svg>
